<?xml version="1.0" encoding="utf-8"?>
<!-- Generator: Adobe Illustrator 21.0.0, SVG Export Plug-In . SVG Version: 6.00 Build 0)  -->
<svg version="1.1" id="Calque_1" xmlns="http://www.w3.org/2000/svg" xmlns:xlink="http://www.w3.org/1999/xlink" x="0px" y="0px"
	 viewBox="0 0 1701.2 1146.1" style="enable-background:new 0 0 1701.2 1146.1;" xml:space="preserve">
<style type="text/css">
	.st0{fill:#100C0D;}
	.st1{fill:#3B332D;}
	.st2{fill:#5C5C5C;}
	.st3{fill:#261D1A;}
	.st4{fill:#D6CFC3;}
	.st5{fill:#FF0000;}
</style>
<g>
	<path class="st0" d="M1646.3,36.1c0,154.5,0,309,0,463.5c0,174.7,0,349.3,0,524c0,3.8-0.3,7.6-0.9,11.4c-1.3,9.4,3.1,17.6,6.5,25.7
		c3.5,8.1,1.9,16.4,2.2,24.6c0.1,3.3-2.7,1.8-4.1,1.8c-22.8,0.1-45.7,0.1-68.5,0.1c-9.5,0-19,0.1-28.5-0.1c-3-0.1-4,0.5-3.9,3.8
		c0,6.6,0.4,13.2-0.7,19.9c-0.6,3.6-1.2,5-4.8,4.5c-0.7-0.1-1.3,0.1-1.5,0.9c-479.3,0-958.7,0-1438,0c-7.6-0.5-6.5-6.5-6.9-11.3
		c-0.4-4.6-0.3-9.3,0-14c0.2-3.2-0.9-3.8-3.9-3.8c-23.5,0.1-47,0-70.5,0.2c-4,0-4.5-1.2-4.9-4.9c-1.2-10.8,1.4-20,9.2-27.5
		c7.4-7.1,7.9-16.3,7.9-25.4c-0.2-76.3-0.7-152.6-1.1-228.9c-0.2-28.3-0.6-56.6-0.8-84.9c-0.2-36.5-0.4-73-0.6-109.4
		c-0.2-38.8-0.4-77.6-0.6-116.4c-0.3-52.5-0.7-104.9-1-157.4c-0.3-52-0.6-103.9-1-155.9c-0.3-45-0.7-89.9-1-134.9
		c0-1.8,0.1-3.7,0.2-5.5C568.3,36.1,1107.3,36.1,1646.3,36.1z M837.7,38.1c-41.3,0-82.7,0-124,0c-225.7,0-451.3,0-677-0.1
		c-4.3,0-5.7,1-5.6,5.5c0.7,31.6,0.2,63.3,0.8,94.9c1.2,63.7-0.4,127.5,1.2,191.2c1,40.3,0.1,80.6,0.8,120.9
		c1.1,60.8,0,121.6,1.2,182.4C36,676.4,35,719.8,36,763.3c1.3,53.9-0.3,107.9,1.1,161.9c0.8,32.6,0.3,65.3,0.1,98c0,4.9,1.4,6,6.1,6
		c69.2-0.2,138.3-0.1,207.5-0.1c462.5,0,925,0,1387.4,0.1c4.7,0,6.1-1.1,6.1-6c-0.2-80.9-0.1-161.8-0.1-242.7c0-244.7,0-489.3,0-734
		c0-8.4,0-8.4-8.5-8.4C1369.7,38.1,1103.7,38.1,837.7,38.1z M1652.1,1067.8c-1.2-3.2-2.1-5.8-3.1-8.5c-3.1-8-7-15.9-5.7-25
		c0.3-2.3-0.6-3.5-3-3.3c-1.5,0.1-3,0-4.5,0c-530.3,0-1060.7,0-1591,0c-1.2,0-2.3,0.1-3.5,0c-3-0.4-4.3,0.7-4.2,3.8
		c0.3,9.6-4.1,17.1-10.2,24.1c-2.2,2.6-4.1,5.5-6.4,8.8C564.6,1067.8,1108,1067.8,1652.1,1067.8z M1600.2,1070.2
		c-14.2,0-28.3,0-42.5,0c-8.7,0-8.7,0-8.3,8.3c0,0.5,0.1,1,0,1.5c-0.6,3.9,0.9,5,4.9,5c29.2-0.2,58.3-0.1,87.5-0.1
		c10.6,0,10.4,0,10.5-10.4c0-3.6-1.2-4.4-4.6-4.4C1631.8,1070.3,1616,1070.2,1600.2,1070.2z M59.4,1070.2c-9.7,0-19.3,0-29,0
		c-10.1,0-9.9,0-10.1,9.8c-0.1,3.9,1,5.1,5,5c21.2-0.2,42.3-0.1,63.5-0.1c7.7,0,7.6,0,8.4-7.4c0.1-1,0.4-1.9,0.7-2.9
		c0.9-3.1,0.1-4.6-3.5-4.5C82.7,1070.3,71,1070.2,59.4,1070.2z"/>
	<path class="st1" d="M837.7,38.1c266,0,532,0,798,0c8.5,0,8.5,0,8.5,8.4c0,244.7,0,489.3,0,734c0,80.9,0,161.8,0.1,242.7
		c0,4.9-1.4,6-6.1,6c-462.5-0.1-925-0.1-1387.4-0.1c-69.2,0-138.3-0.1-207.5,0.1c-4.7,0-6.2-1.1-6.1-6c0.2-32.7,0.7-65.3-0.1-98
		c-1.4-54,0.2-107.9-1.1-161.9c-1.1-43.5,0-86.9-0.9-130.4C34,572.1,35,511.3,34,450.5c-0.7-40.3,0.2-80.6-0.8-120.9
		c-1.6-63.7,0.1-127.5-1.2-191.2c-0.6-31.6-0.1-63.3-0.8-94.9C31.1,39,32.5,38,36.8,38c225.7,0.1,451.3,0.1,677,0.1
		C755.1,38.1,796.4,38.1,837.7,38.1z M704.3,82.2c-14.4,0-28.7,0-43.1,0c-31,1.5-61.9,0.7-92.9,1c-4.7,0-9.4,0-14.1,0
		c-31,1.6-61.9,0.7-92.9,1c-4.4,0-8.7,0-13.1,0c-31.3,1.5-62.6,0.7-93.9,1c-4.6,0.4-9.4-1-13.9,0.9c-31,0-62,0.1-93.1,0.1
		c-4.4,0-8.7,0-13.1,0c-31.3,1.5-62.6,0.7-93.9,1c-4.4,0-8.7,0-13.1,0.1c-6.7-0.5-13.3,0.7-19.9,0.8c-9.8,0.2-19.7,0.1-29.5,0.1
		c-6.5,0-6.5,0-6.5,6.4c0,269.2,0,538.5,0,807.7c0,29.3,0,58.6,0,88c0,3,0,5,4.1,5c21,0,41.9-0.5,62.9,0.8c3.7,0,7.4,0,11.1,0.1
		c24.3,0.2,48.6-0.5,72.9,1c3.7,0,7.4,0,11.1,0c24.3,0,48.6-0.1,72.9,0.9c3.4,0,6.7,0,10.1,0.1c24.3,0.3,48.6-0.6,72.9,1
		c3.7,0,7.4,0,11.1,0c24.3,0.3,48.6-0.5,72.9,0.9c3.4,0,6.7,0.1,10.1,0.1c24.6,0.2,49.3-0.5,73.9,0.9c3.4,0,6.8,0,10.1,0.1
		c24.3,0.3,48.6-0.6,72.9,1c3.7,0,7.4,0,11.1,0c21,0,41.9,0,62.9,0c3.7,0,7.4,0,11.1,0c24.3-1.5,48.6-0.7,72.9-1c3.7,0,7.4,0,11.1,0
		c24.3-1.5,48.6-0.7,72.9-1c3.7,0,7.4,0,11.1,0c24.3-1.5,48.6-0.7,72.9-1c3.4,0,6.8,0,10.1,0c24.6-1.4,49.3-0.7,73.9-0.9
		c3.4,0,6.7,0,10.1-0.1c24.6-1.5,49.3-0.7,73.9-1c3.4,0,6.7,0,10.1,0c24.3-1.5,48.6-0.7,72.9-1c3.7,0,7.4,0,11.1,0
		c5.5,0.7,10.9-1,16.4-0.9c14.7,0.1,29.3,0,44,0c6.6,0,6.6,0,6.6-6.8c0-258.1,0-516.3,0-774.4c0-40.2,0-80.3,0-120.5
		c0-2.9,0.3-5.4-4.2-5.4c-17,0.3-33.9,0.2-50.9-0.9c-4.7,0-9.3,0-14,0c-5.5,0-11,0-16.5,0c-25.5,0-51.1,0-76.6-0.1
		c-4.5-2-9.3-0.5-13.9-0.9c-31,0-62-0.1-93.1-0.1c-4.5-2-9.3-0.5-13.9-0.9c-31.3-0.2-62.6,0.5-93.9-1c-4.4,0-8.7,0-13.1,0
		c-31.3-0.3-62.6,0.6-93.9-1c-4.4,0-8.7,0-13.1,0C766.9,82.9,735.6,83.6,704.3,82.2z M1611.3,501.7c0-134.5,0-269,0.1-403.4
		c0-5.1-1.3-6.3-6.3-6.3c-89.8,0.2-179.6,0.1-269.5,0.1c-6.4,0-6.4,0-6.4,6.5c0,146.8,0,293.6,0,440.4c0,2.2,0.1,4.4-0.3,6.5
		c-1.5,8.7-2.3,17.8-2.3,26.3c0.6,120.1-2.9,240.3,1.5,360.4c0.6,16.8,0.2,33.7,0,50.5c-0.1,4.4,1.2,5.6,5.6,5.6
		c90.8-0.1,181.6-0.1,272.5,0c4.3,0,5.3-1.3,5.2-5.4c-0.2-26.4-0.1-52.8-0.1-79.2C1611.3,769.7,1611.3,635.7,1611.3,501.7z"/>
	<path class="st2" d="M1652.1,1067.8c-544.1,0-1087.5,0-1631.6,0c2.3-3.2,4.1-6.2,6.4-8.8c6-7,10.5-14.5,10.2-24.1
		c-0.1-3.1,1.2-4.2,4.2-3.8c1.1,0.1,2.3,0,3.5,0c530.3,0,1060.7,0,1591,0c1.5,0,3,0.1,4.5,0c2.5-0.2,3.4,1,3,3.3
		c-1.3,9,2.6,16.9,5.7,25C1650,1062,1650.9,1064.6,1652.1,1067.8z"/>
	<path class="st2" d="M1600.2,1070.2c15.8,0,31.7,0.1,47.5-0.1c3.4,0,4.6,0.8,4.6,4.4c-0.1,10.4,0.1,10.4-10.5,10.4
		c-29.2,0-58.3-0.1-87.5,0.1c-4,0-5.5-1.1-4.9-5c0.1-0.5,0-1,0-1.5c-0.4-8.3-0.4-8.3,8.3-8.3
		C1571.8,1070.2,1586,1070.2,1600.2,1070.2z"/>
	<path class="st2" d="M59.4,1070.2c11.7,0,23.3,0.1,35-0.1c3.6-0.1,4.4,1.4,3.5,4.5c-0.3,1-0.6,1.9-0.7,2.9
		c-0.8,7.4-0.8,7.4-8.4,7.4c-21.2,0-42.3-0.1-63.5,0.1c-4,0-5.1-1.1-5-5c0.2-9.8,0-9.8,10.1-9.8C40,1070.2,49.7,1070.2,59.4,1070.2z
		"/>
	<path class="st3" d="M809.3,1001.1c-3.7,0-7.4,0-11.1,0c-0.7-0.9-1.7-1-2.7-1c-22.3,0-44.5,0-66.8,0c-1.5,0-3.1-0.3-3.4,1.9
		c-3.7,0-7.4,0-11.1,0c-1.1-1.4-2.7-1-4.2-1c-18.2,0-36.4,0-54.6,0c-1.4,0-3-0.5-4.2,1c-3.7,0-7.4,0-11.1,0
		c-0.7-3.1-3.2-1.9-4.9-1.9c-21.1-0.1-42.2-0.1-63.3,0c-1.6,0-3.4-0.6-4.7,0.9c-3.4,0-6.8,0-10.1-0.1c-0.5-2.8-2.8-1.8-4.4-1.9
		c-21.8-0.1-43.5-0.1-65.3,0c-1.4,0-3-0.4-4.2,1c-3.4,0-6.7-0.1-10.1-0.1c-0.5-2.8-2.8-1.8-4.4-1.8c-21.4-0.1-42.9-0.1-64.3,0
		c-1.4,0-3-0.5-4.2,1c-3.7,0-7.4,0-11.1,0c-0.7-3.1-3.2-1.9-4.9-1.9c-21.1-0.1-42.2-0.1-63.4,0c-1.6,0-3.4-0.6-4.7,1
		c-3.4,0-6.7,0-10.1-0.1c-0.7-3.1-3.2-1.8-4.9-1.8c-21.1-0.1-42.2-0.1-63.3,0c-1.6,0-3.4-0.6-4.7,0.9c-3.7,0-7.4,0-11.1,0
		c-0.7-3.1-3.2-1.9-4.9-1.9c-21.1-0.1-42.2-0.1-63.3,0c-1.6,0-3.4-0.6-4.7,1c-3.7,0-7.4,0-11.1-0.1c-0.7-3.1-3.2-1.8-4.9-1.8
		c-17.5-0.1-35-0.1-52.5-0.1c-8.5,0-8.5,0-8.5-8.3c0-142.6,0-285.3,0-427.9c0-154.1,0-308.2,0-462.4c0-6.4,0-6.4,6.5-6.4
		c14.5,0,29,0,43.5-0.1c1.7,0,4.2,1.2,4.9-1.8c4.4,0,8.7,0,13.1-0.1c1,1.3,2.4,1,3.7,1c28.8,0,57.6,0,86.3,0c1.5,0,3.5,0.6,3.9-1.9
		c4.4,0,8.7,0,13.1,0c1.3,1.5,3.1,0.9,4.7,0.9c27.9,0,55.8,0,83.7,0c1.6,0,3.4,0.5,4.7-1c4.5-2,9.3-0.5,13.9-0.9
		c0.7,0.9,1.7,1,2.7,1c29.3,0,58.6,0,87.8,0c1.5,0,3.1,0.3,3.4-1.9c4.4,0,8.7,0,13.1,0c1,1.3,2.4,1,3.7,1c28.5,0,56.9,0,85.4,0
		c1.5,0,3.5,0.6,3.9-1.9c4.7,0,9.4,0,14.1,0c0.7,0.9,1.7,1,2.7,1c28.9,0,57.9,0,86.8,0c1.5,0,3.1,0.3,3.4-1.9c14.4,0,28.7,0,43.1,0
		c0.7,3.1,3.2,1.9,4.9,1.9c28.1,0.1,56.2,0.1,84.3,0c1.6,0,3.4,0.6,4.7-0.9c4.4,0,8.7,0,13.1,0c0.8,3.3,3.5,1.9,5.4,1.9
		c27.8,0.1,55.6,0.1,83.4,0c1.7,0,3.7,0.7,5.2-1c4.4,0,8.7,0,13.1,0c0.7,3.1,3.2,1.9,4.9,1.9c28.1,0.1,56.3,0.1,84.4,0
		c1.6,0,3.4,0.6,4.7-1c4.6,0.4,9.4-1,13.9,0.9c1.5,1.6,3.4,1,5.2,1c27.6,0,55.1,0,82.7,0c1.7,0,3.7,0.7,5.2-0.9
		c4.6,0.4,9.4-1.1,13.9,0.9c1.3,1.5,3.1,1,4.7,1c27.9,0,55.9,0,83.8,0c1.6,0,3.4,0.6,4.7-1c4.7,0,9.3,0,14,0
		c0.6,3.1,3.1,1.9,4.9,1.9c13.3,0.1,26.7,0.1,40,0.1c9.1,0,9.1,0,9.1,8.9c0,281.4,0,562.8,0,844.3c0,15.5-0.2,31,0.1,46.5
		c0.1,4.6-1.4,5.5-5.7,5.5c-18.5-0.2-37-0.1-55.5,0c-1.7,0-4.2-1.2-4.9,1.9c-3.7,0-7.4,0-11.1,0c-0.7-0.9-1.7-1-2.7-1
		c-22.3,0-44.6,0-66.9,0c-1.5,0-3.1-0.3-3.4,1.9c-3.4,0-6.7,0-10.1,0c-0.7-0.9-1.7-1-2.7-1c-22.6,0-45.2,0-67.8,0
		c-1.5,0-3.1-0.3-3.4,1.9c-3.4,0-6.7,0-10.1,0.1c-0.7-0.9-1.7-1-2.7-1c-22.6,0-45.2,0-67.8,0c-1.5,0-3.1-0.3-3.4,1.9
		c-3.4,0-6.8,0-10.1,0c-0.7-0.9-1.7-1-2.7-1c-22.3,0-44.5,0-66.8,0c-1.5,0-3.1-0.3-3.4,1.9c-3.7,0-7.4,0-11.1,0
		c-0.7-0.9-1.7-1-2.7-1c-22.3,0-44.6,0-66.9,0C811.2,999.1,809.5,998.9,809.3,1001.1z M125.5,133.9c-0.2,0.4-0.4,0.8,0.4,0.8
		C125.7,134.4,125.6,134.2,125.5,133.9c-7.1-5.2-14.2-10.5-21.2-15.8c-3.8-4.1-8.3-7.1-13-10c-0.6-1.8-2.5-2-3.7-3.2
		c-1-1.1-2.2-2.3-3.9-1.4c-1.6,0.8-1.5,2.5-1.5,4c0,3.6-0.1,7.3,0,10.9c0.1,5.7,1.6,6.6,7.1,4.6c4.5,0.7,9,1.5,13.6,2.2
		C110.6,127.8,117.6,132,125.5,133.9z M1280.2,122c0.7,0.1,1.4,0,2,0.2c4,1.7,5.5,0.4,5.2-3.8c-0.2-2.8,0.1-5.6-0.1-8.4
		c-0.2-2.5,1.4-6.4-1-7.3c-2.7-1-4.9,2.3-6.9,4.4c-3.7,2.8-8.2,4.6-11,8.6c-7.4,5.4-14.8,10.9-22.1,16.3c0.2,0.2,0.3,0.4,0.5,0.7
		c7.2-2.9,14.3-5.8,21.5-8.7C1272.3,124.1,1276.2,122.7,1280.2,122z M88.5,945.3c-0.8-0.1-1.7,0-2.5-0.2c-4.1-1.4-5.1,0.4-4.8,4.2
		c0.3,3-0.1,6,0.1,8.9c0.2,2.5-1.5,6.2,1.4,7.2c2.5,0.8,4.7-2.3,6.5-4.3c3.9-2.6,8.2-4.8,11-8.8c7.9-4.8,14.8-10.9,21.8-17
		c-7.3,3-14.5,5.9-21.8,8.9C96.2,943.5,92.5,945.9,88.5,945.3z M1280.2,962c0.7,0.7,1.2,1.7,2,2.1c1.4,0.6,2.4,2.8,4.3,1.5
		c1.4-1,0.7-2.7,0.7-4.2c0.1-4.4,0-8.9,0-13.3c0-2.5-0.5-4.4-3.8-3.2c-1.1,0.4-2.3,0.3-3.4,0.4c-4.8,0.6-9.2-2-14-2
		c-7.1-2.9-14.3-5.7-21.4-8.6c-0.1,0.2-0.2,0.3-0.3,0.5c7.3,5.4,14.6,10.9,21.9,16.3C1270.4,955.7,1275.1,959.1,1280.2,962z
		 M800.3,963.1c27.3-0.8,62.1,1.1,96.9-0.9c18.1-1,36.2,0,54.4-0.9c21.2-1,42.5-1.1,63.7-2.1c14.7-0.7,29.5-1.2,44.3-2
		c15.4-0.8,30.8-1.8,46.1-3c17.7-1.3,35.3-3,52.9-5c17.8-2.1,35.4-5,52.8-9.3c14.8-3.6,25.9-10.1,28.8-27.3c4.4-26.7,7-53.5,9-80.4
		c1.4-17.8,2.3-35.7,3-53.6c0.7-19.1,0.9-38.2,2-57.3c0.8-14.9,0.6-29.9,0.8-44.9c0.8-42.9,0.4-85.8,0.3-128.7
		c-0.1-42.5,0.6-84.9-1-127.4c-0.4-11.5,0.2-22.9-0.8-34.4c-1.1-13.4,0.1-26.9-1.1-40.4c-0.8-9.1-0.4-18.2-0.8-27.4
		c-0.7-17.9-1.4-35.8-2.3-53.7c-0.5-9-0.2-18-1.2-26.9c-0.6-5.7-0.4-11.3-0.9-16.9c-1.2-13.8-2.7-27.7-3.8-41.5
		c-1-11.7-2.5-23.4-5.2-34.8c-1.2-5.2-4.4-8.4-10.2-9.5c-13-2.5-26.2-3.5-39.4-4.8c-15.7-1.5-31.4-2.4-47.1-3
		c-15.3-0.6-30.5-1.4-45.8-1.9c-20.1-0.7-40.2-1-60.3-2.1c-12.6-0.7-25.2,0.1-37.9-0.9c-15.2-1.2-30.6,0-45.9-1
		c-18.7-1.3-37.6-0.3-56.4-0.9c-30.9-1-61.9-0.5-92.9-1.1c-31.2-0.7-62.3-0.3-93.5-0.1c-78.8,0.5-157.6-1.2-236.4,0.9
		c-23.5,0.7-46.9-0.7-70.4,0.9c-16.6,1.1-33.2-0.4-49.9,1c-13.1,1.1-26.2,0.3-39.4,0.9c-18.9,0.9-37.8,1.3-56.7,2.1
		c-19.4,0.8-38.8,1.9-58.1,3c-17.7,1-35.3,2.7-52.9,5.2c-11.8,1.7-15.1,4.4-16.8,14.2c-1.2,7.3-2.5,14.7-3.1,22.1
		c-1.5,19-3.1,38-4,57c-0.8,16.7-1,33.5-2,50.3c-0.8,12.9,0,25.9-0.9,38.9c-1.2,17.7-0.9,35.6-0.9,53.4c-0.1,88-1.5,175.9,0.6,263.9
		c0.6,25.4-0.2,50.9,1.1,76.4c0.5,11,0,21.9,0.8,32.9c1,13.7,0.5,27.6,1.1,41.4c0.7,16.1,1.5,32.2,2,48.3c0.6,20.1,2,40.1,3.3,60.1
		c0.6,9.4,2.3,18.7,3.3,28.1c0.8,7.4,5.1,10.7,12.1,12.4c21.6,5.4,43.7,7.1,65.7,9.7c14.6,1.7,29.3,2.9,44,4c19.7,1.5,39.3,3,59,4
		c17.6,0.9,35.1,2,52.6,2.9c14.2,0.7,28.5,1.4,42.8,2c16.3,0.6,32.5,1.4,48.8,2c19.1,0.6,38.2,1,57.3,2.1
		c11.3,0.7,22.6-0.1,33.9,0.9c13.2,1.2,26.6,0,39.9,1c15.4,1.2,30.9,0.2,46.4,0.9c24.3,1.1,48.6,0.4,72.9,1.1
		C734.2,963.7,763.5,963.1,800.3,963.1z M1244.8,133.8l0.2-0.3l-0.3,0L1244.8,133.8z M123.7,934.4l-0.2,0.3l0.4,0L123.7,934.4z"/>
	<path class="st0" d="M1611.3,501.7c0,134,0,268,0,401.9c0,26.4-0.1,52.8,0.1,79.2c0,4.1-1,5.4-5.2,5.4c-90.8-0.1-181.6-0.1-272.5,0
		c-4.4,0-5.6-1.2-5.6-5.6c0.3-16.8,0.6-33.7,0-50.5c-4.4-120.1-0.9-240.2-1.5-360.4c0-8.5,0.7-17.6,2.3-26.3
		c0.4-2.1,0.3-4.3,0.3-6.5c0-146.8,0-293.6,0-440.4c0-6.5,0-6.5,6.4-6.5c89.8,0,179.6,0,269.5-0.1c5.1,0,6.4,1.2,6.3,6.3
		C1611.3,232.8,1611.3,367.2,1611.3,501.7z M1609.2,742.6c0-63-0.1-126,0.1-189c0-4.6-1.2-5.6-5.7-5.6
		c-87.1,0.1-174.3,0.1-261.4,0.1c-3.8,0-8.9-1.3-11.1,0.7c-2.6,2.3-0.4,7.5-0.9,11.4c-0.5,3.9,0.8,4.9,4.8,4.9
		c25.7-0.2,51.3,0,77-0.2c3.6,0,4.3,0.9,4.3,4.4c-0.1,115.1-0.1,230.3,0,345.4c0,3.5-0.8,4.4-4.3,4.4c-23.3-0.2-46.7-0.1-70-0.1
		c-11.8,0-11.6,0-11.9,11.8c-0.1,4,0.7,5.3,5,5.2c89.6-0.1,179.3-0.1,268.9,0c4.1,0,5.2-0.9,5.2-5.1
		C1609.2,868.2,1609.2,805.4,1609.2,742.6z M1414.2,742.6c0-56.8,0-113.6,0.1-170.5c0-3.9-1-5-5-5c-25.3,0.2-50.7,0.2-76,0
		c-3.9,0-5,1.1-5,5c0.1,113.3,0.1,226.6,0,339.9c0,3.9,1,5,5,5c25.2-0.2,50.3-0.2,75.5,0c4.4,0,5.5-1.1,5.5-5.5
		C1414.1,855.3,1414.2,798.9,1414.2,742.6z M1469.3,122.1c15.7,0,31.3,0,47,0c26.6,0,53.3-0.1,79.9,0.1c4.6,0,6.7-0.9,6.2-5.9
		c-0.4-4.1-0.4-8.3,0-12.5c0.4-4.6-1.1-5.9-5.8-5.8c-53.3,0.2-106.6,0.1-159.9,0.1c-31.6,0-63.3,0.1-94.9-0.1c-4.8,0-6,1.5-5.7,5.9
		c0.3,4.3,0.3,8.7,0,13c-0.3,4.1,1,5.3,5.2,5.3C1384.1,122.1,1426.7,122.1,1469.3,122.1z M1469.5,956.1c-42.7,0-85.3,0.1-128-0.1
		c-4.1,0-5.7,1-5.3,5.2c0.4,4.3,0.3,8.7,0,13c-0.3,4.1,1.3,5,5.1,5c29.8-0.1,59.7-0.1,89.5-0.1c55.5,0,111,0,166.5,0.1
		c3.8,0,5.4-0.9,5.1-5c-0.4-4.1-0.4-8.4,0-12.5c0.5-4.7-1.4-5.8-5.9-5.7C1554.2,956.2,1511.8,956.1,1469.5,956.1z M1469.6,503.2
		c-42.8,0-85.6,0-128.4-0.1c-3.3,0-5.5,0.3-4.9,4.5c0.6,4,3.5,2.3,5.4,2.3c62.3,0.1,124.6,0.1,186.9,0.1c23,0,46-0.1,68.9,0
		c3.2,0,5-0.4,4.7-4.2c-0.3-4.1-3.3-2.6-5.2-2.6C1554.6,503.2,1512.1,503.2,1469.6,503.2z M1469.3,483c42.6,0,85.3,0,127.9,0
		c3.2,0,5.5-0.1,5-4.4c-0.5-4-3.5-2.4-5.4-2.4c-59.1-0.1-118.2-0.1-177.4-0.1c-26.1,0-52.3,0-78.4-0.1c-3,0-5.1,0.1-4.8,4.1
		c0.3,4.1,3.2,2.7,5.1,2.7C1384.1,483,1426.7,483,1469.3,483z M1469.3,148c42.6,0,85.3,0,127.9,0c3.2,0,5.6-0.1,5-4.4
		c-0.5-4.1-3.4-2.4-5.3-2.4c-61.3-0.1-122.6-0.1-183.9-0.1c-24,0-48,0-72,0c-1.8,0-4.5-1.2-4.8,2.5c-0.3,3.7,1.2,4.3,4.6,4.3
		C1383.7,148,1426.5,148,1469.3,148z M1468.8,301c2.2,0,4.3,0,6.5,0c40.6,0,81.3,0,121.9,0.1c3.7,0,5.8-0.6,5-4.8
		c-0.6-3.6-3.4-2-5.2-2c-67.6-0.1-135.2-0.1-202.9-0.1c-17.8,0-35.6,0-53.5,0c-2.5,0-4.4-0.1-4.4,3.5c0,4.3,2.8,3.3,5.1,3.3
		C1383.8,301,1426.3,301,1468.8,301z M1469.2,321.2C1469.2,321.2,1469.2,321.2,1469.2,321.2c-6.8,0-13.7,0-20.5,0
		c-36,0-71.9,0-107.9-0.1c-3.4,0-4.8,0.8-4.5,4.4c0.4,3.7,3.1,2.4,4.9,2.4c37.6,0.1,75.3,0,112.9,0c48,0,95.9,0,143.9,0.1
		c3.8,0,4.6-1.5,4.2-4.7c-0.5-3.7-3.3-2.1-5.1-2.2C1554.5,321.2,1511.8,321.2,1469.2,321.2z M1469.3,495c22.2,0,44.3,0,66.5,0
		c20.8,0,41.6,0,62.5,0c1.5,0,3.6,0.8,3.9-1.8c0.1-1.3,0.6-3-0.8-3.6c-1.5-0.5-3.3-0.4-4.9-0.4c-64.3,0-128.6,0-192.9,0
		c-21,0-42,0-63,0c-3.8,0-5.4,1.9-4,4.6c1.1,2.2,3.2,1.2,4.9,1.2C1384.1,495,1426.7,495,1469.3,495z M1469.3,342
		c28.6,0,57.3,0,85.9,0c14.5,0,29,0,43.5,0c1.4,0,3.3,0.5,3.4-1.8c0.1-1.3,0.6-3-0.8-3.6c-1.3-0.5-2.9-0.4-4.4-0.4
		c-73.9,0-147.9,0-221.8,0c-11.7,0-23.3,0.1-35,0c-3.3,0-4.3,1.3-3.6,4.1c0.7,3.1,3.3,1.7,5,1.7C1384,342,1426.7,342,1469.3,342z
		 M1469.3,175c22.3,0,44.6,0,66.9,0c20.7,0,41.3,0,62,0c3.4,0,5.3-2.4,3.7-4.8c-1.3-1.9-3.4-1-5.1-1c-81.1-0.1-162.2-0.1-243.3-0.1
		c-4.8,0-9.7,0.1-14.5,0c-2.3,0-2.7,1.2-2.7,3.1c0,1.9,0.6,2.8,2.6,2.7c1.5-0.1,3,0,4.5,0C1385.4,175,1427.4,175,1469.3,175z
		 M1468.8,950C1468.8,950,1468.8,950,1468.8,950c23.8,0,47.7,0,71.5,0c19.3,0,38.7,0,58,0c3.4,0,5.3-2.5,3.6-4.8
		c-1.3-1.9-3.4-0.9-5.1-0.9c-68.8,0-137.7,0-206.5,0c-16.7,0-33.3,0.1-50,0c-3.6,0-4.6,1.4-3.8,4.4c0.7,2.5,3.1,1.4,4.7,1.4
		C1383.8,950,1426.3,950,1468.8,950z M1469.8,225.2c-21.3,0-42.6,0-63.9,0c-21.8,0-43.6,0-65.4,0.1c-1.5,0-3.7-0.9-3.9,1.7
		c-0.1,1.3-0.8,3.3,1.2,3.8c1.4,0.4,3,0.2,4.5,0.2c55.5,0,110.9,0,166.4,0c29.6,0,59.3,0,88.9,0c4.3,0,5.9-1.6,4.6-4.5
		c-1.1-2.3-3.2-1.3-4.8-1.3C1554.7,225.2,1512.2,225.2,1469.8,225.2z M1469.8,462.2c-25.1,0-50.3,0-75.4,0c-17.7,0-35.3-0.1-53,0
		c-1.9,0-5-1.4-5.1,2.7c-0.1,4.5,3.1,2.7,5.2,3.1c0.2,0,0.3,0,0.5,0c69.8,0,139.6,0,209.3,0c15.7,0,31.3-0.1,47,0.1
		c3.7,0,4.5-1.7,3.6-4.5c-0.7-2.4-3.1-1.3-4.8-1.3C1554.7,462.2,1512.3,462.2,1469.8,462.2z M1468.8,286
		C1468.8,286,1468.8,286,1468.8,286c23.5,0,47,0,70.4,0c19.7,0,39.3,0,59,0c1.5,0,3.6,0.9,3.9-1.7c0.1-1.2,0.7-3-0.8-3.6
		c-1.5-0.6-3.3-0.4-4.9-0.4c-74.4,0-148.9,0-223.3,0c-11,0-22,0.1-33-0.1c-3.2-0.1-4.3,1.2-3.7,4.1c0.6,3.1,3.3,1.7,4.9,1.7
		C1383.8,286,1426.3,286,1468.8,286z M1469.2,518.2c-23.1,0-46.3,0-69.4,0c-19.8,0-39.6,0-59.5,0c-2,0-4-0.3-4,2.9
		c0,3.1,1.8,3,3.9,3c0.8,0,1.7,0,2.5,0c58.6,0,117.2,0,175.9,0c26.5,0,53,0,79.4,0c1.4,0,3.3,0.8,3.9-1.1c0.4-1.2,0.5-3-0.1-3.8
		c-1.2-1.6-3.4-0.8-5.2-0.8C1554.1,518.2,1511.7,518.2,1469.2,518.2z M1469.3,356C1469.3,356,1469.3,356,1469.3,356
		c33.5,0,67,0,100.4,0c9.7,0,19.3,0,29,0.1c2.1,0,3.5-0.2,3.5-2.9c0-2.6-1.2-3.2-3.4-3c-0.8,0.1-1.7,0-2.5,0
		c-73.3,0-146.6,0-219.8,0c-12.2,0-24.3,0-36.5,0.1c-1.2,0-2.9-0.6-3.4,1.1c-0.3,1.2-0.5,2.9,0.1,3.9c1,1.5,3.1,0.8,4.7,0.8
		C1384.1,356,1426.7,356,1469.3,356z M1469.8,377.2c-17,0-34,0-51,0c-26,0-52,0-77.9,0c-4,0-5.9,2-4.3,4.7c1.2,2,3.3,1,5,1.1
		c60,0,119.9,0,179.9,0c25.5,0,51,0,76.4,0.1c3.6,0,5.1-1.1,4.1-4.6c-0.7-2.4-3.1-1.3-4.8-1.3
		C1554.8,377.2,1512.3,377.2,1469.8,377.2z M1469.2,398C1469.2,398,1469.2,398,1469.2,398c16.8,0,33.6,0,50.5,0
		c26.2,0,52.3,0,78.5,0c1.5,0,3.6,0.9,4-1.7c0.2-1.2,0.7-3.1-0.7-3.6c-1.4-0.6-3.2-0.5-4.9-0.5c-72,0-143.9,0-215.9,0
		c-13.5,0-27,0.1-40.5,0c-3.1,0-4.3,1-3.8,4c0.6,3.2,3.2,1.8,4.9,1.8C1383.9,398,1426.6,398,1469.2,398z M1469.8,406.2
		C1469.8,406.2,1469.8,406.2,1469.8,406.2c-31.1,0-62.3,0-93.4,0c-11.3,0-22.7-0.1-34,0.1c-2.1,0-5.9-2.2-6,2.7
		c-0.1,5.3,4,2.3,6.2,3c0.9,0.3,2,0,3,0c60.6,0,121.3,0,181.9,0c23.5,0,47-0.1,70.5,0.1c3.6,0,5.1-1.2,4-4.6
		c-0.8-2.4-3.1-1.3-4.8-1.3C1554.7,406.2,1512.3,406.2,1469.8,406.2z M1468.7,439c42.5,0,84.9,0,127.4-0.1c2.1,0,5.9,2.2,6-2.7
		c0.1-5.2-4-2.9-6.2-2.9c-14.7-0.2-29.3-0.1-44-0.1c-70.1,0-140.2,0-210.4,0c-2.1,0-5.3-1.5-5.3,3c0.1,4.1,3.1,2.7,5,2.7
		C1383.8,439,1426.3,439,1468.7,439z M1469.3,454c20.3,0,40.6,0,61,0c22.5,0,45,0,67.5,0c2.9,0,5.1-0.2,4.4-3.9
		c-0.6-3.2-3.1-1.9-4.8-1.9c-85.5-0.1-170.9-0.1-256.4,0c-2.2,0-4.8-0.9-4.7,3.1c0.1,3.7,2.7,2.7,4.6,2.7
		C1383.7,454,1426.5,454,1469.3,454z M1469.8,308.2c-31.8,0-63.6,0-95.5,0c-11,0-22-0.1-33,0.1c-1.8,0-4.8-1.5-4.9,2.2
		c-0.1,4.2,3.3,2.5,5.1,2.5c85.1,0.1,170.3,0.1,255.4,0.1c1,0,2,0,3,0c1.8,0.1,2.2-0.9,2.2-2.5c0-1.7-0.8-2.4-2.5-2.3
		c-1.3,0.1-2.7,0-4,0C1553.8,308.2,1511.8,308.2,1469.8,308.2z M1469.6,202C1469.6,202,1469.6,202,1469.6,202c42.3,0,84.6,0,126.9,0
		c1.2,0,2.3,0,3.5,0c1.8,0,2.2-1,2.2-2.6c0-1.4-0.5-2.2-2-2.2c-1.2,0-2.3,0-3.5,0c-81.1,0-162.2,0-243.3,0c-4.8,0-9.7,0.1-14.5,0
		c-1.6,0-2.5,0.6-2.5,2.3c0,1.6,0.5,2.5,2.3,2.5c1.3,0,2.7,0,4,0C1385,202,1427.3,202,1469.6,202z M1468.7,217
		c37.6,0,75.3,0,112.9,0c5.5,0,11,0.1,16.5,0c1.6,0,3.9,0.9,4-2.2c0.1-3.4-2.4-2.3-4.2-2.5c-0.3,0-0.7,0-1,0
		c-81.6,0-163.2,0-244.8,0c-4,0-8,0-12,0c-1.8,0-3.8-0.5-3.8,2.5c0.1,3.1,2.3,2.1,4,2.3c0.5,0.1,1,0,1.5,0
		C1384.1,217,1426.4,217,1468.7,217z M1469.3,132C1469.3,132,1469.3,132,1469.3,132c19.3,0,38.7,0,58,0c23.5,0,47,0,70.5,0
		c2.3,0,5.2,0.6,4.3-3.3c-0.6-2.7-3-1.5-4.6-1.5c-85.5-0.1-170.9-0.1-256.4,0c-1.8,0-4.8-1.3-4.7,2.5c0.1,3.4,2.8,2.2,4.5,2.2
		C1383.7,132,1426.5,132,1469.3,132z M1469.2,245c33.1,0,66.3,0,99.4,0c10,0,20,0,30,0c1.6,0,3.5,0.5,3.6-2.2c0.1-3-1.9-2.6-3.7-2.6
		c-0.5,0-1,0-1.5,0c-81.1,0-162.2,0-243.3,0c-4.8,0-9.7,0-14.5,0c-1.7,0-2.8,0.4-2.8,2.5c0,2.1,1.3,2.4,2.9,2.4c0.7,0,1.3,0,2,0
		C1383.9,245,1426.5,245,1469.2,245z M1469.3,258C1469.3,258,1469.3,258,1469.3,258c42.3,0,84.6,0,126.9,0c1.3,0,2.7,0,4,0
		c1.5,0,1.9-1,1.9-2.3c0-1.3-0.2-2.4-1.8-2.4c-1.2,0-2.3-0.1-3.5-0.1c-85.1,0-170.2,0-255.3,0c-1,0-2,0-3,0c-1.8,0-2.2,1-2.2,2.6
		c0,1.4,0.5,2.2,2,2.2c1,0,2,0,3,0C1384,258,1426.6,258,1469.3,258z M1469.3,537C1469.3,537,1469.3,537,1469.3,537
		c42.3,0,84.6,0,126.9,0c1.2,0,2.3,0,3.5,0c1.6,0.1,2.4-0.6,2.4-2.3c0-1.6-0.5-2.5-2.3-2.5c-1.2,0-2.3,0-3.5,0
		c-84.1,0-168.2,0-252.3,0c-1.7,0-3.3,0.1-5,0c-1.8-0.1-2.8,0.6-2.7,2.6c0.1,1.8,1,2.3,2.5,2.2c1.8,0,3.7,0,5.5,0
		C1386,537,1427.7,537,1469.3,537z M1468.7,161c22.5,0,45,0,67.5,0c20.2,0,40.3,0.1,60.5-0.1c1.9,0,5.3,1.8,5.4-2.2
		c0.1-4.5-3.7-1.7-5.6-2.6c-0.1-0.1-0.3,0-0.5,0c-80.6,0-161.3,0-241.9,0c-4.5,0-9-0.1-13.5,0c-1.8,0-4.3-0.9-4.2,2.5
		c0.1,3.4,2.7,2,4.4,2.3c0.2,0,0.3,0,0.5,0C1383.8,161,1426.2,161,1468.7,161z M1468.7,189c42.8,0,85.6,0,128.4,0c1,0,2,0,3,0
		c1.5,0,2-0.8,2-2.2c0-1.6-0.4-2.6-2.2-2.6c-1.2,0-2.3,0-3.5,0c-84.8,0-169.5,0-254.3,0c-1.3,0-2.7,0-4,0.1
		c-1.6,0.1-1.8,1.2-1.8,2.4c0,1.3,0.4,2.3,1.9,2.3c1.3,0,2.7,0,4,0C1384.4,189,1426.6,189,1468.7,189z M1469.2,421.2
		c-42.8,0-85.6,0-128.4,0.1c-1.5,0-4.2-1.2-4.3,1.7c-0.1,3.1,2.6,1.7,4.1,2c1.1,0.2,2.3,0,3.5,0c75.8,0,151.6,0,227.4,0
		c9.2,0,18.3,0,27.5,0c1.4,0,3.2,0.4,3.1-2.1c-0.1-2-1.6-1.7-2.9-1.8c-1.3,0-2.7,0-4,0C1553.2,421.2,1511.2,421.2,1469.2,421.2z
		 M1469.3,272C1469.3,272,1469.3,272,1469.3,272c42.3,0,84.6,0,126.9,0c1.3,0,2.7,0,4,0c1.2,0,1.8-0.6,1.8-1.8
		c0-1.2-0.5-1.9-1.7-1.9c-1.3,0-2.7-0.1-4-0.1c-85,0-169.9,0-254.9,0c-1.2,0-2.3,0-3.5,0.1c-1.3,0.1-1.6,0.9-1.6,2
		c0.1,0.9,0.5,1.6,1.5,1.6c1.2,0.1,2.3,0.1,3.5,0.1C1384,272,1426.7,272,1469.3,272z M1469.2,365.2
		C1469.2,365.2,1469.2,365.2,1469.2,365.2c-42.8,0-85.6,0-128.4,0.1c-1.5,0-4.2-1.2-4.3,1.8c-0.1,3.1,2.6,1.6,4.2,1.9
		c0.8,0.2,1.7,0,2.5,0c71.1,0,142.3,0,213.4,0c14,0,28,0,42,0c1.5,0,3.7,0.7,3.5-2.1c-0.1-2.4-2.1-1.6-3.4-1.7c-1.3-0.1-2.7,0-4,0
		C1552.8,365.2,1511,365.2,1469.2,365.2z"/>
	<path class="st0" d="M127.2,87.2c-0.7,3.1-3.2,1.8-4.9,1.8c-14.5,0.1-29,0.1-43.5,0.1c-6.5,0-6.5,0-6.5,6.4
		c0,154.1,0,308.2,0,462.4c0,142.6,0,285.3,0,427.9c0,8.3,0,8.3,8.5,8.3c17.5,0,35,0,52.5,0.1c1.7,0,4.2-1.2,4.9,1.8
		c-20.9-1.4-41.9-0.8-62.9-0.8c-4,0-4.1-2-4.1-5c0.1-29.3,0-58.6,0-88c0-269.2,0-538.5,0-807.7c0-6.4,0-6.4,6.5-6.4
		c9.8,0,19.7,0.1,29.5-0.1C113.9,87.9,120.5,86.7,127.2,87.2z"/>
	<path class="st0" d="M1228.3,996c0.7-3.1,3.2-1.9,4.9-1.9c18.5-0.1,37-0.2,55.5,0c4.3,0.1,5.8-0.9,5.7-5.5
		c-0.3-15.5-0.1-31-0.1-46.5c0-281.4,0-562.8,0-844.3c0-8.9,0-8.9-9.1-8.9c-13.3,0-26.7,0-40-0.1c-1.7,0-4.2,1.2-4.9-1.9
		c16.9,1,33.9,1.1,50.9,0.9c4.5-0.1,4.2,2.4,4.2,5.4c0,40.2,0,80.3,0,120.5c0,258.1,0,516.3,0,774.4c0,6.8,0,6.8-6.6,6.8
		c-14.7,0-29.3,0.1-44,0C1239.2,995.1,1233.8,996.7,1228.3,996z"/>
	<path class="st0" d="M798.2,83.2c-1.3,1.5-3.1,0.9-4.7,0.9c-28.1,0-56.2,0-84.3,0c-1.7,0-4.2,1.2-4.9-1.9
		C735.6,83.6,766.9,82.9,798.2,83.2z"/>
	<path class="st0" d="M448.2,84.2c-0.2,2.2-1.9,1.9-3.4,1.9c-29.3,0-58.6,0-87.8,0c-1,0-2-0.1-2.7-1
		C385.6,84.9,416.9,85.6,448.2,84.2z"/>
	<path class="st0" d="M234.2,86.2c-0.4,2.5-2.4,1.9-3.9,1.9c-28.8,0-57.6,0-86.3,0c-1.3,0-2.7,0.3-3.7-1
		C171.6,86.9,202.9,87.7,234.2,86.2z"/>
	<path class="st0" d="M1012.2,85.1c-1.3,1.5-3.1,1-4.7,1c-28.1,0-56.3,0-84.4,0c-1.7,0-4.2,1.2-4.9-1.9
		C949.6,85.7,980.9,84.9,1012.2,85.1z"/>
	<path class="st0" d="M905.2,84.1c-1.5,1.6-3.4,1-5.2,1c-27.8,0-55.6,0.1-83.4,0c-1.8,0-4.5,1.4-5.4-1.9
		C842.6,84.7,873.9,83.8,905.2,84.1z"/>
	<path class="st0" d="M554.2,83.1c-0.3,2.5-2.3,1.9-3.9,1.9c-28.5,0-56.9,0-85.4,0c-1.3,0-2.7,0.3-3.7-1
		C492.3,83.9,523.3,84.7,554.2,83.1z"/>
	<path class="st0" d="M661.2,82.2c-0.2,2.2-1.9,1.9-3.4,1.9c-28.9,0-57.9,0-86.8,0c-1,0-2-0.1-2.7-1
		C599.3,82.8,630.2,83.7,661.2,82.2z"/>
	<path class="st0" d="M1226.3,87.1c-1.3,1.6-3.1,1-4.7,1c-27.9,0-55.9,0-83.8,0c-1.6,0-3.4,0.5-4.7-1c25.5,0,51.1,0,76.6,0.1
		C1215.3,87.1,1220.8,87.1,1226.3,87.1z"/>
	<path class="st0" d="M1119.2,86.2c-1.5,1.6-3.4,0.9-5.2,0.9c-27.6,0-55.1,0-82.7,0c-1.8,0-3.7,0.6-5.2-1
		C1057.2,86.1,1088.2,86.1,1119.2,86.2z"/>
	<path class="st0" d="M340.4,86.1c-1.3,1.5-3.1,1-4.7,1c-27.9,0-55.8,0-83.7,0c-1.6,0-3.4,0.6-4.7-0.9
		C278.3,86.1,309.4,86.1,340.4,86.1z"/>
	<path class="st0" d="M233.3,997.1c1.3-1.5,3.1-0.9,4.7-0.9c21.1,0,42.2,0,63.3,0c1.7,0,4.2-1.2,4.9,1.8
		C281.9,997,257.6,997.1,233.3,997.1z"/>
	<path class="st0" d="M1060.3,998c0.2-2.2,1.9-1.9,3.4-1.9c22.6,0,45.2,0,67.8,0c1,0,2,0.1,2.7,1
		C1109.6,997.3,1084.9,996.6,1060.3,998z"/>
	<path class="st0" d="M976.3,999c0.2-2.2,1.9-1.9,3.4-1.9c22.6,0,45.2,0,67.8,0c1,0,2,0.1,2.7,1
		C1025.6,998.3,1000.9,997.6,976.3,999z"/>
	<path class="st0" d="M483.3,1000.1c1.1-1.4,2.7-1,4.2-1c21.8,0,43.5,0,65.3,0c1.6,0,3.9-1,4.4,1.9
		C532.6,999.6,507.9,1000.3,483.3,1000.1z"/>
	<path class="st0" d="M1144.3,997c0.2-2.2,1.9-1.9,3.4-1.9c22.3,0,44.6,0,66.9,0c1,0,2,0.1,2.7,1
		C1192.9,996.3,1168.6,995.6,1144.3,997z"/>
	<path class="st0" d="M149.3,996.1c1.3-1.5,3.1-0.9,4.7-1c21.1,0,42.2,0,63.3,0c1.7,0,4.2-1.2,4.9,1.9
		C197.9,995.6,173.6,996.3,149.3,996.1z"/>
	<path class="st0" d="M809.3,1001.1c0.2-2.2,1.9-1.9,3.4-1.9c22.3,0,44.6,0,66.9,0c1,0,2,0,2.7,1
		C857.9,1000.3,833.6,999.5,809.3,1001.1z"/>
	<path class="st0" d="M316.3,998.1c1.3-1.5,3.1-1,4.7-1c21.1,0,42.2,0,63.4,0c1.7,0,4.2-1.2,4.9,1.9
		C364.9,997.5,340.6,998.4,316.3,998.1z"/>
	<path class="st0" d="M400.3,999.1c1.1-1.4,2.7-1,4.2-1c21.4,0,42.9,0,64.3,0c1.6,0,3.9-1,4.4,1.8
		C448.9,998.5,424.6,999.3,400.3,999.1z"/>
	<path class="st0" d="M567.3,1001.1c1.3-1.5,3.1-0.9,4.7-0.9c21.1,0,42.2,0,63.3,0c1.7,0,4.2-1.2,4.9,1.9
		C615.9,1000.5,591.6,1001.4,567.3,1001.1z"/>
	<path class="st0" d="M725.3,1002c0.2-2.2,1.9-1.9,3.4-1.9c22.3,0,44.5,0,66.8,0c1,0,2,0,2.7,1
		C773.9,1001.3,749.6,1000.5,725.3,1002z"/>
	<path class="st0" d="M893.3,1000c0.2-2.2,1.9-1.9,3.4-1.9c22.3,0,44.5,0,66.8,0c1,0,2,0,2.7,1C941.9,999.4,917.6,998.5,893.3,1000z
		"/>
	<path class="st0" d="M651.3,1002.1c1.1-1.4,2.7-1,4.2-1c18.2,0,36.4,0,54.6,0c1.4,0,3-0.5,4.2,1
		C693.2,1002.1,672.3,1002.1,651.3,1002.1z"/>
	<path class="st0" d="M800.3,963.1c-36.8,0-66.1,0.6-95.4-0.2c-24.3-0.6-48.6,0-72.9-1.1c-15.5-0.7-31,0.3-46.4-0.9
		c-13.3-1-26.7,0.1-39.9-1c-11.3-1-22.6-0.2-33.9-0.9c-19.1-1.1-38.2-1.5-57.3-2.1c-16.3-0.6-32.5-1.4-48.8-2
		c-14.3-0.5-28.5-1.3-42.8-2c-17.5-0.9-35.1-2-52.6-2.9c-19.7-1-39.4-2.5-59-4c-14.7-1.1-29.4-2.3-44-4c-22-2.6-44.1-4.4-65.7-9.7
		c-6.9-1.7-11.3-5-12.1-12.4c-1-9.4-2.7-18.7-3.3-28.1c-1.3-20-2.7-40-3.3-60.1c-0.5-16.1-1.3-32.2-2-48.3
		c-0.6-13.8,0-27.6-1.1-41.4c-0.8-11-0.2-21.9-0.8-32.9c-1.3-25.4-0.5-50.9-1.1-76.4c-2.1-88-0.7-175.9-0.6-263.9
		c0-17.8-0.3-35.6,0.9-53.4c0.9-13,0.1-25.9,0.9-38.9c1-16.7,1.2-33.5,2-50.3c0.9-19,2.4-38,4-57c0.6-7.4,1.8-14.8,3.1-22.1
		c1.7-9.8,5-12.5,16.8-14.2c17.5-2.5,35.1-4.2,52.9-5.2c19.4-1.1,38.7-2.2,58.1-3c18.9-0.8,37.9-1.2,56.7-2.1
		c13.1-0.6,26.3,0.2,39.4-0.9c16.6-1.4,33.3,0.1,49.9-1c23.5-1.6,46.9-0.2,70.4-0.9c78.8-2.2,157.6-0.4,236.4-0.9
		c31.2-0.2,62.3-0.5,93.5,0.1c31,0.7,61.9,0.1,92.9,1.1c18.8,0.6,37.6-0.4,56.4,0.9c15.3,1,30.6-0.2,45.9,1
		c12.7,1,25.3,0.2,37.9,0.9c20.1,1.1,40.2,1.4,60.3,2.1c15.3,0.5,30.5,1.3,45.8,1.9c15.7,0.6,31.5,1.6,47.1,3
		c13.2,1.2,26.4,2.3,39.4,4.8c5.8,1.1,9,4.3,10.2,9.5c2.7,11.5,4.2,23.1,5.2,34.8c1.2,13.8,2.6,27.7,3.8,41.5
		c0.5,5.6,0.3,11.2,0.9,16.9c1,8.9,0.8,17.9,1.2,26.9c0.9,17.9,1.5,35.8,2.3,53.7c0.4,9.1,0,18.3,0.8,27.4c1.2,13.5,0.1,27,1.1,40.4
		c0.9,11.5,0.3,22.9,0.8,34.4c1.6,42.4,0.9,84.9,1,127.4c0.1,42.9,0.5,85.8-0.3,128.7c-0.3,15,0,29.9-0.8,44.9
		c-1.1,19.1-1.2,38.2-2,57.3c-0.7,17.9-1.6,35.8-3,53.6c-2.1,26.9-4.6,53.7-9,80.4c-2.8,17.2-13.9,23.6-28.8,27.3
		c-17.4,4.3-35,7.2-52.8,9.3c-17.6,2.1-35.2,3.7-52.9,5c-15.4,1.2-30.7,2.2-46.1,3c-14.8,0.8-29.5,1.3-44.3,2
		c-21.2,1-42.5,1.1-63.7,2.1c-18.1,0.8-36.3-0.2-54.4,0.9C862.5,964.2,827.7,962.3,800.3,963.1z M119.4,513.1
		c0.4,21-0.3,59.4,0.5,97.9c0.8,41.8,1,83.6,2.1,125.3c0.6,21.1,1.3,42.2,1.9,63.4c0.9,29.4,2.3,58.8,4.4,88.2
		c0.7,9.8,2.2,19.5,3,29.2c0.6,7.8,4.6,11.6,12.1,13.3c15.9,3.6,32,5.8,48.2,7.6c19.8,2.2,39.7,3.8,59.6,5.4
		c27.2,2.2,54.4,3.7,81.6,5.5c18.6,1.2,37.2,2.1,55.8,3c24.6,1.1,49.2,2.1,73.8,3c18.9,0.7,37.9,1.4,56.9,2
		c25.8,0.8,51.6,1.4,77.3,2c16.3,0.4,32.6,0.2,48.9,0.8c26.3,1,52.6,0.7,78.9,1c53.6,0.5,107.3,0.7,160.9-0.4
		c30.9-0.7,61.9-1.1,92.8-2c28.9-0.8,57.9-2.2,86.8-3.4c11-0.5,21.9-1.2,32.8-2.1c22.7-1.9,45.4-3.7,67.9-6.8
		c17.8-2.5,35.4-5.3,52.7-10.7c11.1-3.5,16.7-10.4,19-21.8c6.8-34,8.5-68.6,10.7-103c1.4-21.1,2.2-42.2,2.9-63.3
		c0.9-28.6,1.9-57.2,2-85.8c0.2-69.8,1-139.6-0.5-209.4c-0.7-31.4-0.8-62.9-2.1-94.3c-1-25.3-1.4-50.6-2.5-75.8
		c-0.3-7.5-0.5-15-1-22.4c-2-29.7-3.4-59.4-6.9-89c-1-8.6-2.3-17.1-4.4-25.5c-1.1-4.1-3.1-6.8-7.6-7.4c-2.1-0.3-4.2-1-6.3-1.3
		c-22.4-3.2-45-4.5-67.5-5.9c-21.7-1.3-43.5-2.2-65.3-3c-20.8-0.8-41.6-1.5-62.4-2c-29.1-0.8-58.2-1.4-87.3-2
		c-20.3-0.4-40.6-0.2-60.9-0.9c-30-1-59.9-0.2-89.9-1c-27.6-0.7-55.3-0.4-83-0.3c-75,0.2-149.9-0.6-224.9,0.9
		c-21,0.4-41.9,0.3-62.9,0.8c-32.8,0.8-65.6,1.1-98.3,2.1c-18.8,0.6-37.6,1.3-56.4,1.9c-30.4,1.1-60.8,2.7-91.1,5.3
		c-10.4,0.9-20.8,2.3-31.1,4.3c-5.5,1.1-8.5,3.9-9.7,9.7c-2.5,12.1-3.8,24.3-4.6,36.5c-1.7,24.2-3,48.5-4,72.7
		c-1,23.4-1.5,46.9-2,70.3c-0.5,21.5-0.4,42.9-0.8,64.4C118.9,425.3,119.4,460.4,119.4,513.1z"/>
	<path class="st2" d="M1266.1,943.3c4.8,0,9.1,2.6,14,2c0.1,5.6,0.1,11.1,0.2,16.7c-5.1-2.8-9.9-6.2-13.9-10.5
		C1266.2,948.7,1266.1,946,1266.1,943.3z"/>
	<path class="st2" d="M102.9,125.2c-4.5-0.7-9-1.5-13.6-2.2c0-3.6-0.1-7.3,0-10.9c0-1.6-0.5-3.5,1.9-3.9c4.7,2.9,9.2,5.9,13,10
		C102.7,120.3,104.3,123,102.9,125.2z"/>
	<path class="st2" d="M100.2,952.2c-2.8,4-7.1,6.2-11,8.8c-1.9-5.2-0.6-10.5-0.8-15.8c4,0.6,7.7-1.7,11.8-1.2
		C101,946.8,101,949.5,100.2,952.2z"/>
	<path class="st2" d="M1268.3,115.8c2.8-4,7.2-5.9,11-8.6c1.6,4.9,0.8,9.9,0.9,14.9c-4,0.7-7.9,2-12,2
		C1267.8,121.3,1267.7,118.5,1268.3,115.8z"/>
	<path class="st1" d="M1280.2,962c-0.1-5.6-0.1-11.1-0.2-16.7c1.1-0.1,2.4,0,3.4-0.4c3.2-1.2,3.8,0.7,3.8,3.2c0,4.4,0.1,8.9,0,13.3
		c0,1.4,0.7,3.2-0.7,4.2c-1.8,1.3-2.9-0.9-4.3-1.5C1281.4,963.6,1280.9,962.7,1280.2,962z"/>
	<path class="st1" d="M91.3,108.1c-2.4,0.4-1.9,2.4-1.9,3.9c0,3.6,0,7.3,0,10.9c-5.5,2-7,1.1-7.1-4.6c-0.1-3.6,0-7.3,0-10.9
		c0-1.5-0.1-3.1,1.5-4c1.7-0.9,2.8,0.3,3.9,1.4C88.7,106.1,90.7,106.3,91.3,108.1z"/>
	<path class="st1" d="M88.5,945.3c0.2,5.3-1.1,10.6,0.8,15.8c-1.8,2.1-4,5.1-6.5,4.3c-2.9-0.9-1.3-4.7-1.4-7.2c-0.2-3,0.2-6-0.1-8.9
		c-0.3-3.8,0.7-5.6,4.8-4.2C86.8,945.3,87.7,945.2,88.5,945.3z"/>
	<path class="st1" d="M1280.2,122c-0.1-5,0.7-10-0.9-14.9c2-2.1,4.2-5.4,6.9-4.4c2.5,0.9,0.9,4.7,1,7.3c0.2,2.8-0.1,5.6,0.1,8.4
		c0.4,4.3-1.2,5.5-5.2,3.8C1281.6,122,1280.8,122.1,1280.2,122z"/>
	<path class="st4" d="M100.2,952.2c0.7-2.7,0.7-5.4,0-8.2c7.3-3,14.5-5.9,21.8-8.9C115.1,941.4,108.1,947.4,100.2,952.2z"/>
	<path class="st4" d="M1268.3,115.8c-0.6,2.7-0.5,5.5-0.2,8.2c-7.2,2.9-14.3,5.8-21.5,8.7c-0.2-0.2-0.3-0.4-0.5-0.7
		C1253.5,126.7,1260.9,121.2,1268.3,115.8z"/>
	<path class="st4" d="M1266.1,943.3c0.1,2.7,0.2,5.5,0.2,8.2c-7.3-5.4-14.6-10.9-21.9-16.3c0.1-0.2,0.2-0.3,0.3-0.5
		C1251.8,937.5,1258.9,940.4,1266.1,943.3z"/>
	<path class="st4" d="M102.9,125.2c1.4-2.2-0.2-4.9,1.3-7.1c7.1,5.3,14.1,10.6,21.2,15.8l0.1-0.1C117.6,132,110.6,127.8,102.9,125.2
		z"/>
	<polygon class="st4" points="1244.8,133.8 1244.7,133.5 1245,133.6 	"/>
	<path class="st4" d="M125.4,134c0.2,0.2,0.3,0.5,0.5,0.7C125.1,134.7,125.3,134.3,125.4,134C125.5,133.9,125.4,134,125.4,134z"/>
	<polygon class="st4" points="123.7,934.4 123.9,934.7 123.5,934.7 	"/>
	<path class="st4" d="M1609.2,742.6c0,62.8,0,125.6,0.1,188.5c0,4.2-1.1,5.1-5.2,5.1c-89.6-0.1-179.3-0.1-268.9,0
		c-4.3,0-5.1-1.3-5-5.2c0.3-11.8,0.1-11.8,11.9-11.8c23.3,0,46.7-0.1,70,0.1c3.6,0,4.3-1,4.3-4.4c-0.1-115.1-0.1-230.3,0-345.4
		c0-3.5-0.8-4.4-4.3-4.4c-25.7,0.2-51.3,0-77,0.2c-4,0-5.3-1-4.8-4.9c0.5-3.9-1.7-9.1,0.9-11.4c2.2-1.9,7.3-0.7,11.1-0.7
		c87.1,0,174.3,0,261.4-0.1c4.5,0,5.7,1,5.7,5.6C1609.2,616.6,1609.2,679.6,1609.2,742.6z M1597.5,643c0.1-45-36.4-81.6-81.4-81.8
		c-44.9-0.2-81.7,36.5-81.8,81.5c-0.1,45.3,36.5,82,81.7,82C1560.9,724.7,1597.4,688.1,1597.5,643z M1597.5,844.7
		c0-45.2-36.5-81.6-81.6-81.6c-45.1,0-81.6,36.5-81.6,81.7c0,45.2,36.4,81.5,81.6,81.6C1561,926.4,1597.5,889.9,1597.5,844.7z
		 M1513.3,753.1c6.7,0,13.3-0.1,20,0.1c2.4,0.1,3.2-0.7,3.1-3.1c-0.2-6.3-0.2-12.7,0-19c0.1-2.4-0.7-3.1-3.1-3.1
		c-13.3,0.1-26.7,0.1-40,0c-2.4,0-3.2,0.7-3.1,3.1c0.2,6.3,0.2,12.7,0,19c-0.1,2.4,0.7,3.1,3.1,3.1
		C1499.9,753,1506.6,753.1,1513.3,753.1z"/>
	<path class="st2" d="M1414.2,742.6c0,56.3-0.1,112.6,0.1,169c0,4.4-1.1,5.6-5.5,5.5c-25.2-0.2-50.3-0.2-75.5,0c-4,0-5-1.1-5-5
		c0.1-113.3,0.1-226.6,0-339.9c0-3.9,1-5,5-5c25.3,0.2,50.7,0.2,76,0c4,0,5,1.1,5,5C1414.1,629,1414.2,685.8,1414.2,742.6z
		 M1385,662.1c-11.4,0-20.9,9.5-20.8,21c0,11.2,9.5,20.9,20.5,21c11.2,0.1,21.2-9.6,21.4-20.7C1406.5,671.8,1396.8,662.1,1385,662.1
		z M1384.5,842.1c11.9,0.2,21.4-8.9,21.7-20.7c0.3-10.9-9.8-21.2-20.8-21.3c-11.3-0.1-21.1,9.5-21.1,20.9
		C1364.2,832.3,1373.4,842,1384.5,842.1z M1385,593.9c-10.6-1-20.9,8.8-20.8,20.8c0.1,11.2,9.5,20.5,20.9,20.5
		c11.5,0,20.9-9.2,21.1-20.9C1406.4,602.8,1397.2,593.9,1385,593.9z M1385.2,730.9c-12,0-21,8.8-20.9,20.7
		c0,11.2,9.4,20.6,20.7,20.6c11.8,0.1,21.4-9.5,21.3-21.2C1406.1,739.8,1396.8,730.9,1385.2,730.9z M1385,909.2
		c11.9,0,21.3-9.4,21.2-21.2c-0.1-11.2-9.5-20.1-21.1-20.1c-11.9,0-20.9,9.1-20.9,20.8C1364.3,900,1373.6,909.2,1385,909.2z"/>
	<path class="st1" d="M1469.3,122.1c-42.6,0-85.3-0.1-127.9,0.1c-4.2,0-5.6-1.2-5.2-5.3c0.3-4.3,0.3-8.7,0-13
		c-0.3-4.4,0.8-6,5.7-5.9c31.6,0.2,63.3,0.1,94.9,0.1c53.3,0,106.6,0.1,159.9-0.1c4.6,0,6.2,1.3,5.8,5.8c-0.4,4.1-0.4,8.4,0,12.5
		c0.5,5.1-1.5,6-6.2,5.9c-26.6-0.2-53.3-0.1-79.9-0.1C1500.6,122.1,1485,122.1,1469.3,122.1z"/>
	<path class="st1" d="M1469.5,956.1c42.3,0,84.7,0.1,127-0.1c4.5,0,6.3,1,5.9,5.7c-0.4,4.1-0.4,8.3,0,12.5c0.3,4.1-1.3,5-5.1,5
		c-55.5-0.1-111-0.1-166.5-0.1c-29.8,0-59.7-0.1-89.5,0.1c-3.8,0-5.5-0.8-5.1-5c0.4-4.3,0.4-8.7,0-13c-0.4-4.3,1.3-5.2,5.3-5.2
		C1384.2,956.2,1426.9,956.1,1469.5,956.1z"/>
	<path class="st2" d="M1469.6,503.2c42.5,0,84.9,0,127.4,0.1c1.9,0,4.8-1.5,5.2,2.6c0.3,3.9-1.5,4.2-4.7,4.2c-23-0.1-46,0-68.9,0
		c-62.3,0-124.6,0-186.9-0.1c-1.9,0-4.9,1.7-5.4-2.3c-0.6-4.2,1.6-4.5,4.9-4.5C1384,503.2,1426.8,503.2,1469.6,503.2z"/>
	<path class="st2" d="M1469.3,483c-42.6,0-85.3,0-127.9-0.1c-1.9,0-4.8,1.4-5.1-2.7c-0.3-4,1.7-4.1,4.8-4.1
		c26.1,0.1,52.3,0.1,78.4,0.1c59.1,0,118.2,0,177.4,0.1c1.9,0,4.8-1.6,5.4,2.4c0.5,4.3-1.8,4.4-5,4.4
		C1554.6,483,1512,483,1469.3,483z"/>
	<path class="st2" d="M1469.3,148c-42.8,0-85.6,0-128.4,0.1c-3.3,0-4.9-0.6-4.6-4.3c0.3-3.7,2.9-2.5,4.8-2.5c24-0.1,48,0,72,0
		c61.3,0,122.6,0,183.9,0.1c1.9,0,4.8-1.6,5.3,2.4c0.5,4.3-1.8,4.4-5,4.4C1554.6,148,1511.9,148,1469.3,148z"/>
	<path class="st2" d="M1468.8,301c-42.5,0-84.9,0-127.4,0c-2.3,0-5.1,1-5.1-3.3c0-3.6,1.9-3.5,4.4-3.5c17.8,0,35.6,0,53.5,0
		c67.6,0,135.2,0,202.9,0.1c1.8,0,4.5-1.5,5.2,2c0.8,4.2-1.3,4.8-5,4.8c-40.6-0.1-81.3-0.1-121.9-0.1
		C1473.1,301,1470.9,301,1468.8,301z"/>
	<path class="st2" d="M1469.2,321.2c42.6,0,85.3,0,127.9,0.1c1.8,0,4.6-1.5,5.1,2.2c0.4,3.2-0.4,4.7-4.2,4.7
		c-48-0.1-95.9-0.1-143.9-0.1c-37.6,0-75.3,0-112.9,0c-1.8,0-4.5,1.3-4.9-2.4c-0.4-3.6,1.1-4.4,4.5-4.4c36,0.1,71.9,0.1,107.9,0.1
		C1455.6,321.2,1462.4,321.2,1469.2,321.2C1469.2,321.2,1469.2,321.2,1469.2,321.2z"/>
	<path class="st2" d="M1469.3,495c-42.6,0-85.3,0-127.9,0c-1.6,0-3.8,1-4.9-1.2c-1.4-2.7,0.2-4.6,4-4.6c21,0,42,0,63,0
		c64.3,0,128.6,0,192.9,0c1.7,0,3.4-0.2,4.9,0.4c1.5,0.5,0.9,2.3,0.8,3.6c-0.2,2.7-2.4,1.8-3.9,1.8c-20.8,0.1-41.6,0-62.5,0
		C1513.6,495,1491.5,495,1469.3,495z"/>
	<path class="st2" d="M1469.3,342c-42.6,0-85.3,0-127.9-0.1c-1.7,0-4.3,1.4-5-1.7c-0.6-2.9,0.4-4.2,3.6-4.1c11.7,0.2,23.3,0,35,0
		c73.9,0,147.9,0,221.8,0c1.5,0,3.1-0.2,4.4,0.4c1.4,0.6,0.9,2.3,0.8,3.6c-0.1,2.3-2,1.8-3.4,1.8c-14.5,0-29,0-43.5,0
		C1526.6,342,1497.9,342,1469.3,342z"/>
	<path class="st2" d="M1469.3,175c-42,0-83.9,0-125.9,0c-1.5,0-3-0.1-4.5,0c-2,0.1-2.6-0.9-2.6-2.7c0-2,0.4-3.2,2.7-3.1
		c4.8,0.1,9.7,0,14.5,0c81.1,0,162.2,0,243.3,0.1c1.7,0,3.8-0.9,5.1,1c1.6,2.4-0.3,4.8-3.7,4.8c-20.7,0-41.3,0-62,0
		C1514,175,1491.7,175,1469.3,175z"/>
	<path class="st2" d="M1468.8,950c-42.5,0-85,0-127.5-0.1c-1.6,0-4,1.2-4.7-1.4c-0.8-3,0.2-4.4,3.8-4.4c16.7,0.2,33.3,0,50,0
		c68.8,0,137.7,0,206.5,0c1.7,0,3.8-0.9,5.1,0.9c1.6,2.3-0.2,4.8-3.6,4.8c-19.3,0-38.7,0-58,0C1516.4,950,1492.6,950,1468.8,950
		C1468.8,950,1468.8,950,1468.8,950z"/>
	<path class="st2" d="M1469.8,225.2c42.5,0,84.9,0,127.4,0c1.6,0,3.8-1,4.8,1.3c1.3,2.9-0.3,4.5-4.6,4.5c-29.6,0-59.3,0-88.9,0
		c-55.5,0-110.9,0-166.4,0c-1.5,0-3.1,0.2-4.5-0.2c-2-0.6-1.3-2.5-1.2-3.8c0.2-2.6,2.5-1.7,3.9-1.7c21.8-0.1,43.6,0,65.4-0.1
		C1427.1,225.2,1448.5,225.2,1469.8,225.2z"/>
	<path class="st2" d="M1469.8,462.2c42.5,0,84.9,0,127.4,0c1.6,0,4-1.1,4.8,1.3c0.9,2.8,0.2,4.6-3.6,4.5c-15.7-0.2-31.3-0.1-47-0.1
		c-69.8,0-139.6,0-209.3,0c-0.2,0-0.3,0-0.5,0c-2.1-0.4-5.4,1.4-5.2-3.1c0.1-4.1,3.1-2.7,5.1-2.7c17.7-0.1,35.3,0,53,0
		C1419.5,462.2,1444.6,462.2,1469.8,462.2z"/>
	<path class="st2" d="M1468.8,286c-42.5,0-84.9,0-127.4-0.1c-1.7,0-4.3,1.4-4.9-1.7c-0.6-2.9,0.4-4.1,3.7-4.1c11,0.2,22,0.1,33,0.1
		c74.4,0,148.9,0,223.3,0c1.6,0,3.4-0.2,4.9,0.4c1.4,0.6,0.9,2.4,0.8,3.6c-0.3,2.6-2.5,1.7-3.9,1.7c-19.7,0.1-39.3,0-59,0
		C1515.7,286,1492.2,286,1468.8,286C1468.8,286,1468.8,286,1468.8,286z"/>
	<path class="st2" d="M1469.2,518.2c42.5,0,84.9,0,127.4,0c1.8,0,3.9-0.8,5.2,0.8c0.6,0.9,0.5,2.7,0.1,3.8c-0.6,1.9-2.5,1.1-3.9,1.1
		c-26.5,0-53,0-79.4,0c-58.6,0-117.2,0-175.9,0c-0.8,0-1.7,0-2.5,0c-2.1,0.1-3.9,0.1-3.9-3c0-3.2,2-2.9,4-2.9c19.8,0,39.6,0,59.5,0
		C1422.9,518.2,1446,518.2,1469.2,518.2z"/>
	<path class="st2" d="M1469.3,356c-42.6,0-85.3,0-127.9,0c-1.6,0-3.6,0.7-4.7-0.8c-0.6-0.9-0.5-2.6-0.1-3.9c0.5-1.7,2.2-1.1,3.4-1.1
		c12.2-0.1,24.3-0.1,36.5-0.1c73.3,0,146.6,0,219.8,0c0.8,0,1.7,0.1,2.5,0c2.2-0.2,3.4,0.4,3.4,3c0,2.7-1.4,2.9-3.5,2.9
		c-9.7-0.1-19.3-0.1-29-0.1C1536.3,356,1502.8,356,1469.3,356C1469.3,356,1469.3,356,1469.3,356z"/>
	<path class="st2" d="M1469.8,377.2c42.5,0,84.9,0,127.4,0c1.6,0,4-1.1,4.8,1.3c1.1,3.4-0.5,4.6-4.1,4.6c-25.5-0.1-51-0.1-76.4-0.1
		c-60,0-119.9,0-179.9,0c-1.7,0-3.8,1-5-1.1c-1.6-2.7,0.3-4.7,4.3-4.7c26,0,52,0,77.9,0C1435.8,377.2,1452.8,377.2,1469.8,377.2z"/>
	<path class="st2" d="M1469.2,398c-42.6,0-85.3,0-127.9-0.1c-1.7,0-4.3,1.4-4.9-1.8c-0.6-3,0.7-4,3.8-4c13.5,0.1,27,0,40.5,0
		c72,0,143.9,0,215.9,0c1.6,0,3.4-0.1,4.9,0.5c1.4,0.6,0.8,2.4,0.7,3.6c-0.3,2.6-2.5,1.7-4,1.7c-26.2,0-52.3,0-78.5,0
		C1502.9,398,1486,398,1469.2,398C1469.2,398,1469.2,398,1469.2,398z"/>
	<path class="st2" d="M1469.8,406.2c42.5,0,85,0,127.4,0c1.6,0,4-1.1,4.8,1.3c1.1,3.4-0.4,4.6-4,4.6c-23.5-0.1-47-0.1-70.5-0.1
		c-60.6,0-121.3,0-181.9,0c-1,0-2.1,0.2-3,0c-2.2-0.7-6.3,2.3-6.2-3c0.1-4.9,3.9-2.6,6-2.7c11.3-0.2,22.7-0.1,34-0.1
		C1407.5,406.2,1438.6,406.2,1469.8,406.2C1469.8,406.2,1469.8,406.2,1469.8,406.2z"/>
	<path class="st2" d="M1468.7,439c-42.5,0-84.9,0-127.4-0.1c-2,0-5,1.4-5-2.7c-0.1-4.5,3.2-3,5.3-3c70.1-0.1,140.2-0.1,210.4,0
		c14.7,0,29.3-0.1,44,0.1c2.2,0,6.3-2.3,6.2,2.9c-0.1,4.8-3.9,2.7-6,2.7C1553.7,439,1511.2,439,1468.7,439z"/>
	<path class="st2" d="M1469.3,454c-42.8,0-85.6,0-128.4,0c-1.9,0-4.5,1.1-4.6-2.7c-0.1-4,2.5-3.1,4.7-3.1c85.5,0,170.9,0,256.4,0
		c1.7,0,4.2-1.3,4.8,1.9c0.7,3.7-1.5,3.9-4.4,3.9c-22.5-0.1-45,0-67.5,0C1510,454,1489.6,454,1469.3,454z"/>
	<path class="st2" d="M1469.8,308.2c42,0,84,0,125.9,0c1.3,0,2.7,0.1,4,0c1.6-0.1,2.4,0.6,2.5,2.3c0,1.6-0.4,2.6-2.2,2.5
		c-1,0-2,0-3,0c-85.1,0-170.3,0-255.4-0.1c-1.9,0-5.2,1.7-5.1-2.5c0.1-3.7,3.2-2.2,4.9-2.2c11-0.1,22-0.1,33-0.1
		C1406.2,308.2,1438,308.2,1469.8,308.2z"/>
	<path class="st2" d="M1469.6,202c-42.3,0-84.6,0-126.9,0c-1.3,0-2.7,0-4,0c-1.7,0-2.3-0.9-2.3-2.5c0-1.7,0.8-2.3,2.5-2.3
		c4.8,0,9.7,0,14.5,0c81.1,0,162.2,0,243.3,0c1.2,0,2.3,0,3.5,0c1.5,0,2,0.8,2,2.2c0,1.6-0.4,2.6-2.2,2.6c-1.2,0-2.3,0-3.5,0
		C1554.2,202,1511.9,202,1469.6,202C1469.6,202,1469.6,202,1469.6,202z"/>
	<path class="st2" d="M1468.7,217c-42.3,0-84.6,0-126.9,0c-0.5,0-1,0-1.5,0c-1.6-0.2-3.9,0.8-4-2.3c-0.1-3,2-2.5,3.8-2.5
		c4,0,8,0,12,0c81.6,0,163.2,0,244.8,0c0.3,0,0.7,0,1,0c1.8,0.2,4.3-0.9,4.2,2.5c-0.1,3.1-2.4,2.2-4,2.2c-5.5,0.1-11,0-16.5,0
		C1544,217,1506.4,217,1468.7,217z"/>
	<path class="st2" d="M1469.3,132c-42.8,0-85.6,0-128.5,0c-1.7,0-4.4,1.2-4.5-2.2c-0.1-3.8,2.8-2.5,4.7-2.5
		c85.5-0.1,170.9,0,256.4,0c1.6,0,4-1.2,4.6,1.5c0.9,3.9-2,3.3-4.3,3.3c-23.5,0-47,0-70.5,0C1507.9,132,1488.6,132,1469.3,132
		C1469.3,132,1469.3,132,1469.3,132z"/>
	<path class="st2" d="M1469.2,245c-42.6,0-85.3,0-127.9,0c-0.7,0-1.3,0-2,0c-1.7,0.1-2.9-0.2-2.9-2.4c0-2.1,1.1-2.5,2.8-2.5
		c4.8,0,9.7,0,14.5,0c81.1,0,162.2,0,243.3,0c0.5,0,1,0,1.5,0c1.8,0,3.8-0.3,3.7,2.6c-0.1,2.7-2,2.2-3.6,2.2c-10,0-20,0-30,0
		C1535.5,245,1502.3,245,1469.2,245z"/>
	<path class="st2" d="M1469.3,258c-42.6,0-85.3,0-127.9,0c-1,0-2,0-3,0c-1.5,0-2-0.9-2-2.2c0-1.5,0.4-2.6,2.2-2.6c1,0,2,0,3,0
		c85.1,0,170.2,0,255.3,0c1.2,0,2.3,0,3.5,0.1c1.6,0.1,1.8,1.2,1.8,2.4c0,1.3-0.4,2.3-1.9,2.3c-1.3,0-2.7,0-4,0
		C1553.9,258,1511.6,258,1469.3,258C1469.3,258,1469.3,258,1469.3,258z"/>
	<path class="st2" d="M1469.3,537c-41.6,0-83.3,0-124.9,0c-1.8,0-3.7-0.1-5.5,0c-1.6,0-2.5-0.4-2.5-2.2c-0.1-2,0.9-2.6,2.7-2.6
		c1.7,0.1,3.3,0,5,0c84.1,0,168.2,0,252.3,0c1.2,0,2.3,0,3.5,0c1.8-0.1,2.3,0.9,2.3,2.5c0,1.7-0.8,2.4-2.4,2.3c-1.2,0-2.3,0-3.5,0
		C1553.9,537,1511.6,537,1469.3,537C1469.3,537,1469.3,537,1469.3,537z"/>
	<path class="st2" d="M1468.7,161c-42.5,0-85,0-127.4,0c-0.2,0-0.3,0-0.5,0c-1.7-0.3-4.3,1.1-4.4-2.3c-0.1-3.4,2.4-2.5,4.2-2.5
		c4.5-0.1,9,0,13.5,0c80.6,0,161.3,0,241.9,0c0.2,0,0.4-0.1,0.5,0c1.9,0.8,5.7-1.9,5.6,2.6c-0.1,4-3.5,2.2-5.4,2.2
		c-20.2,0.1-40.3,0.1-60.5,0.1C1513.7,161,1491.2,161,1468.7,161z"/>
	<path class="st2" d="M1468.7,189c-42.1,0-84.3,0-126.4,0c-1.3,0-2.7,0-4,0c-1.5,0-1.9-1-1.9-2.3c0-1.3,0.2-2.4,1.8-2.4
		c1.3,0,2.7-0.1,4-0.1c84.8,0,169.5,0,254.3,0c1.2,0,2.3,0,3.5,0c1.8,0,2.2,1,2.2,2.6c0,1.4-0.5,2.2-2,2.2c-1,0-2,0-3,0
		C1554.3,189,1511.5,189,1468.7,189z"/>
	<path class="st2" d="M1469.2,421.2c42,0,84,0,125.9,0c1.3,0,2.7,0,4,0c1.3,0,2.8-0.3,2.9,1.8c0.1,2.4-1.7,2-3.1,2.1
		c-9.2,0-18.3,0-27.5,0c-75.8,0-151.6,0-227.4,0c-1.2,0-2.4,0.1-3.5,0c-1.5-0.3-4.2,1.1-4.1-2c0.1-3,2.8-1.7,4.3-1.7
		C1383.6,421.2,1426.4,421.2,1469.2,421.2z"/>
	<path class="st2" d="M1469.3,272c-42.6,0-85.3,0-127.9,0c-1.2,0-2.3,0-3.5-0.1c-1-0.1-1.4-0.7-1.5-1.6c-0.1-1.1,0.3-2,1.6-2
		c1.2-0.1,2.3-0.1,3.5-0.1c85,0,169.9,0,254.9,0c1.3,0,2.7,0,4,0.1c1.2,0,1.8,0.7,1.7,1.9c0,1.2-0.7,1.8-1.8,1.8c-1.3,0-2.7,0-4,0
		C1553.9,272,1511.6,272,1469.3,272C1469.3,272,1469.3,272,1469.3,272z"/>
	<path class="st2" d="M1469.2,365.2c41.8,0,83.6,0,125.4,0c1.3,0,2.7-0.1,4,0c1.3,0.1,3.3-0.7,3.4,1.7c0.2,2.8-2.1,2.1-3.5,2.1
		c-14,0.1-28,0-42,0c-71.1,0-142.3,0-213.4,0c-0.8,0-1.7,0.1-2.5,0c-1.5-0.3-4.2,1.1-4.2-1.9c0.1-3,2.7-1.8,4.3-1.8
		C1383.6,365.2,1426.4,365.2,1469.2,365.2C1469.2,365.2,1469.2,365.2,1469.2,365.2z"/>
	<path class="st2" d="M119.4,513.1c0-52.7-0.5-87.8,0.2-123c0.4-21.5,0.3-43,0.8-64.4c0.6-23.5,1.1-46.9,2-70.3
		c1-24.2,2.3-48.5,4-72.7c0.9-12.2,2.2-24.5,4.6-36.5c1.2-5.8,4.2-8.6,9.7-9.7c10.3-2,20.7-3.4,31.1-4.3c30.3-2.6,60.7-4.2,91.1-5.3
		c18.8-0.7,37.6-1.4,56.4-1.9c32.8-1,65.6-1.4,98.3-2.1c21-0.5,42-0.4,62.9-0.8c75-1.5,149.9-0.7,224.9-0.9
		c27.7-0.1,55.3-0.4,83,0.3c30,0.8,60,0,89.9,1c20.3,0.7,40.6,0.4,60.9,0.9c29.1,0.6,58.2,1.3,87.3,2c20.8,0.5,41.6,1.2,62.4,2
		c21.8,0.9,43.5,1.7,65.3,3c22.5,1.4,45.1,2.6,67.5,5.9c2.1,0.3,4.2,1,6.3,1.3c4.5,0.6,6.5,3.3,7.6,7.4c2.1,8.4,3.4,16.9,4.4,25.5
		c3.5,29.6,4.9,59.3,6.9,89c0.5,7.5,0.6,15,1,22.4c1,25.3,1.5,50.6,2.5,75.8c1.2,31.4,1.4,62.9,2.1,94.3
		c1.5,69.8,0.7,139.6,0.5,209.4c-0.1,28.6-1.1,57.2-2,85.8c-0.7,21.1-1.5,42.2-2.9,63.3c-2.3,34.5-3.9,69-10.7,103
		c-2.3,11.3-7.9,18.3-19,21.8c-17.2,5.4-34.9,8.3-52.7,10.7c-22.5,3.1-45.2,4.9-67.9,6.8c-10.9,0.9-21.9,1.6-32.8,2.1
		c-28.9,1.2-57.8,2.7-86.8,3.4c-30.9,0.9-61.9,1.3-92.8,2c-53.6,1.1-107.3,0.9-160.9,0.4c-26.3-0.2-52.6,0-78.9-1
		c-16.3-0.6-32.6-0.4-48.9-0.8c-25.8-0.7-51.6-1.3-77.3-2c-19-0.6-37.9-1.3-56.9-2c-24.6-1-49.2-1.9-73.8-3
		c-18.6-0.8-37.2-1.7-55.8-3c-27.2-1.8-54.4-3.3-81.6-5.5c-19.9-1.6-39.8-3.2-59.6-5.4c-16.2-1.8-32.3-4-48.2-7.6
		c-7.6-1.7-11.5-5.5-12.1-13.3c-0.8-9.8-2.3-19.5-3-29.2c-2.1-29.4-3.5-58.8-4.4-88.2c-0.6-21.1-1.4-42.2-1.9-63.4
		c-1.1-41.8-1.3-83.6-2.1-125.3C119.1,572.5,119.8,534.1,119.4,513.1z M1225.1,555.5c0.1-29.1,0.3-58.3-0.7-87.4
		c-0.5-12.6-0.4-25.3-0.8-37.9c-0.7-20.6-1.2-41.2-2.1-61.8c-0.6-13.8-1.3-27.6-2-41.3c-1.4-28.1-3.4-56.1-6.2-84
		c-2-20.5-4.9-40.8-8.9-61.1c-2.8-14.1-10-21.5-24.3-24c-29-5-58.3-7.4-87.6-9.7c-22-1.7-44.1-2.9-66.2-3.9
		c-25.7-1.2-51.5-2.2-77.3-3c-24.4-0.8-48.9-1.4-73.3-2c-18.1-0.5-36.3-0.2-54.4-0.9c-29-1.1-57.9-0.6-86.9-0.9
		c-46.5-0.4-92.9-0.9-139.4,0.4c-30,0.8-59.9,0.1-89.9,1c-27.1,0.8-54.2,1.2-81.3,2c-21.5,0.6-42.9,1.4-64.3,2.2
		c-16,0.7-31.9,1.1-47.8,2.3c-26.5,1.9-53,3.4-79.4,6.7c-14,1.7-28,3.7-41.7,7.2c-7.6,2-12.7,6.3-15.4,14.1
		c-7.1,20.2-9.7,41.4-12.5,62.4c-3.8,28.7-6,57.5-8,86.3c-1.7,24.5-2.9,49.1-4,73.7c-0.9,18.9-1.6,37.9-2,56.8
		c-0.6,23.8-1,47.6-1.1,71.4c-0.3,51.1-0.2,102.2,1.8,153.3c0.8,20.9,1.7,41.9,2.9,62.8c1.4,24.9,3.4,49.7,6.2,74.5
		c2.4,21.5,5.8,42.7,11,63.7c4.2,16.8,12.9,28.6,31,31.5c1.8,0.3,3.6,0.8,5.3,1.2c36.3,8.1,73.2,10.9,110.1,13.8
		c20.2,1.6,40.4,2.9,60.7,3.9c24.2,1.2,48.5,2.2,72.8,3c25.3,0.8,50.6,1.6,75.8,2c27,0.5,53.9,0.6,80.9,0.9
		c48.3,0.6,96.6,0.5,144.9-0.6c18.1-0.4,36.3-0.3,54.4-0.8c28.6-0.7,57.2-1.2,85.8-2.1c17.8-0.6,35.6-1.4,53.3-1.9
		c29.8-1,59.5-2.8,89.2-4.3c14.9-0.8,29.9-1.8,44.8-3.2c23.5-2.2,47-4.1,70.3-7.7c13.6-2.1,27.2-4.2,40.3-8.8c5.7-2,9.7-5.5,12.2-11
		c3.5-7.6,5.4-15.7,7-23.9c7.1-35.8,9.3-72.1,11.9-108.4c1.4-20.1,2.3-40.2,2.9-60.3c0.9-26.1,1.6-52.2,2-78.3
		C1225.4,600.8,1225.1,578.2,1225.1,555.5z"/>
	<path class="st0" d="M1597.5,643c-0.1,45.1-36.5,81.6-81.5,81.7c-45.2,0-81.8-36.7-81.7-82c0.1-44.9,36.9-81.6,81.8-81.5
		C1561.1,561.4,1597.5,598,1597.5,643z M1515.9,564.1c-43.6-0.6-79.3,34.2-79.3,78.9c0,44.4,34.6,78.6,78.7,79.1
		c43.7,0.5,79.9-34.6,79.9-79C1595.2,599.6,1559.2,562.9,1515.9,564.1z"/>
	<path class="st0" d="M1597.5,844.7c0,45.2-36.4,81.7-81.6,81.6c-45.3,0-81.6-36.4-81.6-81.6c0-45.1,36.5-81.7,81.6-81.7
		C1561,763.1,1597.5,799.5,1597.5,844.7z M1516.4,924.1c44-0.9,79.1-35,78.7-79.8c-0.3-45-35-79-79.5-78.9
		c-45.2,0.1-79.5,35.5-79.1,80C1436.9,890,1471.8,923.6,1516.4,924.1z"/>
	<path class="st0" d="M1513.3,753.1c-6.7,0-13.3-0.1-20,0.1c-2.4,0.1-3.1-0.7-3.1-3.1c0.1-6.3,0.2-12.7,0-19
		c-0.1-2.4,0.7-3.1,3.1-3.1c13.3,0.1,26.7,0.1,40,0c2.4,0,3.1,0.7,3.1,3.1c-0.1,6.3-0.2,12.7,0,19c0.1,2.4-0.7,3.1-3.1,3.1
		C1526.6,753,1519.9,753.1,1513.3,753.1z M1513,751.1c5.8,0,11.6-0.1,17.4,0c2.7,0.1,4-0.8,3.9-3.7c-0.2-4.6-0.1-9.3,0-13.9
		c0.1-2.7-1.1-3.4-3.6-3.4c-11.6,0.1-23.2,0.1-34.9,0c-2.5,0-3.7,0.7-3.6,3.4c0.1,4.6,0.2,9.3,0,13.9c-0.1,2.9,1.1,3.8,3.8,3.7
		C1501.7,751,1507.4,751.1,1513,751.1z"/>
	<path class="st0" d="M1385,662.1c11.8,0,21.4,9.7,21.2,21.3c-0.2,11.1-10.2,20.8-21.4,20.7c-11-0.1-20.5-9.8-20.5-21
		C1364.2,671.6,1373.6,662,1385,662.1z M1403.4,682.6c0-10.2-8.1-18.3-18.4-18.5c-9.2-0.2-18.7,9-18.5,18.7
		c0.1,10.1,9.9,19,18.6,18.5C1396.1,700.7,1403.4,693.8,1403.4,682.6z"/>
	<path class="st0" d="M1384.5,842.1c-11.1-0.2-20.3-9.8-20.2-21.1c0.1-11.4,9.8-21,21.1-20.9c11.1,0.1,21.1,10.4,20.8,21.3
		C1405.9,833.2,1396.3,842.3,1384.5,842.1z M1403.4,821.5c0-11.1-7.3-18.3-18.3-18.6c-10.2-0.3-18.1,8.1-18.6,18.2
		c-0.5,9.7,8.9,19.2,18.7,18.8C1394.8,839.5,1403.7,832.6,1403.4,821.5z"/>
	<path class="st0" d="M1385,592.9c12.7,0,22.4,9.3,22.2,21.4c-0.2,12.2-10,21.9-22.1,21.8c-11.9,0-21.7-9.8-21.9-21.5
		C1363.1,602.1,1373.9,591.9,1385,592.9z M1404.2,614.4c0-11.1-8-19.2-18.9-19.2c-10.3,0-19.7,8.9-19.8,18.9
		c-0.1,10.4,9.2,20,19.5,19.9C1396,633.9,1404.3,625.5,1404.2,614.4z"/>
	<path class="st0" d="M1385.2,730.9c11.6,0,20.9,8.9,21,20.2c0.1,11.7-9.4,21.2-21.3,21.2c-11.3-0.1-20.7-9.4-20.7-20.6
		C1364.2,739.7,1373.1,730.9,1385.2,730.9z M1403.4,752.2c0.1-10.9-7.5-18.8-17.8-19.2c-10.3-0.4-18.9,8.5-19.1,18.3
		c-0.3,10,8.6,18.7,18.2,18.8C1395,770.2,1403.3,762.4,1403.4,752.2z"/>
	<path class="st0" d="M1385,909.2c-11.4,0-20.7-9.2-20.8-20.5c-0.1-11.8,9-20.8,20.9-20.8c11.6,0,21,8.9,21.1,20.1
		C1406.4,899.8,1397,909.2,1385,909.2z M1403.4,888.6c0-10.7-7.5-18.5-17.9-18.5c-10.1-0.1-19,8.5-19.1,18.4
		c-0.2,9.7,9,18.7,19,18.7C1395.5,907.1,1403.4,899.1,1403.4,888.6z"/>
	<path class="st3" d="M1225.1,555.5c0,22.7,0.3,45.3-0.1,68c-0.4,26.1-1.1,52.2-2,78.3c-0.7,20.1-1.5,40.2-2.9,60.3
		c-2.6,36.3-4.8,72.6-11.9,108.4c-1.6,8.1-3.5,16.2-7,23.9c-2.5,5.5-6.4,9-12.2,11c-13.1,4.6-26.7,6.6-40.3,8.8
		c-23.3,3.6-46.8,5.5-70.3,7.7c-14.9,1.4-29.8,2.4-44.8,3.2c-29.7,1.5-59.4,3.4-89.2,4.3c-17.8,0.6-35.6,1.3-53.3,1.9
		c-28.6,1-57.2,1.4-85.8,2.1c-18.1,0.5-36.3,0.4-54.4,0.8c-48.3,1.1-96.6,1.2-144.9,0.6c-27-0.3-54-0.4-80.9-0.9
		c-25.3-0.4-50.6-1.1-75.8-2c-24.3-0.8-48.5-1.8-72.8-3c-20.2-1-40.5-2.3-60.7-3.9c-36.9-3-73.9-5.7-110.1-13.8
		c-1.8-0.4-3.5-0.9-5.3-1.2c-18.1-2.9-26.8-14.7-31-31.5c-5.3-21-8.6-42.3-11-63.7c-2.8-24.8-4.8-49.6-6.2-74.5
		c-1.2-20.9-2.1-41.8-2.9-62.8c-1.9-51.1-2.1-102.2-1.8-153.3c0.2-23.8,0.6-47.6,1.1-71.4c0.4-19,1.1-37.9,2-56.8
		c1.1-24.6,2.3-49.2,4-73.7c2-28.8,4.2-57.7,8-86.3c2.8-21,5.4-42.2,12.5-62.4c2.7-7.7,7.8-12.1,15.4-14.1
		c13.7-3.6,27.7-5.5,41.7-7.2c26.4-3.3,52.9-4.8,79.4-6.7c15.9-1.1,31.9-1.6,47.8-2.3c21.4-0.9,42.9-1.6,64.3-2.2
		c27.1-0.8,54.2-1.2,81.3-2c30-0.9,60-0.1,89.9-1c46.5-1.3,93-0.8,139.4-0.4c29,0.3,58-0.2,86.9,0.9c18.1,0.7,36.3,0.4,54.4,0.9
		c24.4,0.6,48.9,1.2,73.3,2c25.8,0.9,51.5,1.8,77.3,3c22.1,1,44.2,2.2,66.2,3.9c29.3,2.2,58.6,4.6,87.6,9.7
		c14.3,2.5,21.6,9.8,24.3,24c4,20.2,6.8,40.6,8.9,61.1c2.8,28,4.8,56,6.2,84c0.7,13.8,1.4,27.6,2,41.3c0.9,20.6,1.4,41.2,2.1,61.8
		c0.4,12.6,0.3,25.3,0.8,37.9C1225.4,497.2,1225.2,526.4,1225.1,555.5z M661,931.9c0,0.1,0,0.2,0,0.3c12.7,0,25.3,0.1,38,0
		c25.3-0.2,50.6-0.3,76-0.7c32-0.5,63.9-1.1,95.9-2c33.4-0.9,66.9-2.1,100.3-3.6c48-2.2,96-5,143.9-10c21.2-2.2,42.2-5.2,63.1-9.6
		c14.6-3,22.1-11,25.4-25.3c7.3-31.8,10.2-64,12.6-96.4c3.4-44.3,5.1-88.7,5.8-133.1c0.7-40,1.7-79.9,0.8-119.9
		c-0.6-26.6-0.5-53.3-1.1-79.9c-0.6-28.5-1.3-56.9-2.5-85.3c-2-46.9-4.5-93.7-10-140.3c-2-17.3-4.3-34.6-9.4-51.5
		c-2.1-7-6.2-10.8-13.3-12.5c-20.1-5-40.7-6.9-61.2-8.7c-53.2-4.8-106.6-7-160-8.9c-37.8-1.4-75.5-2.3-113.3-3
		c-40.6-0.7-81.3-1.3-121.9-1.3c-82.3-0.2-164.6-0.4-246.9,1.6c-34.4,0.8-68.9,1.7-103.3,3c-48.4,1.9-96.8,4.2-144.9,9.5
		c-15.4,1.7-30.7,3.7-45.6,8c-6,1.7-9.7,5.4-11.8,11.1c-2.7,7.2-4.7,14.6-6.1,22.1c-6.5,32.9-9.5,66.2-12.3,99.5
		c-4.9,59.2-7.2,118.6-8.5,178c-0.9,42.8-1.5,85.6-0.7,128.4c0.5,28.3,0.9,56.6,2,84.9c1.7,45.1,4,90.1,9.5,134.9
		c2.5,20.6,5.9,41.1,11.7,61.2c4,14,12.5,21.7,26.5,25.1c31.3,7.7,63.3,10.8,95.2,13.6c46.1,4.1,92.3,6.3,138.5,7.9
		c40.3,1.4,80.5,2.4,120.8,3C589.7,932.2,625.3,931.9,661,931.9z"/>
	<path class="st3" d="M1515.9,564.1c43.4-1.2,79.3,35.5,79.3,79c0,44.4-36.2,79.5-79.9,79c-44.1-0.5-78.7-34.7-78.7-79.1
		C1436.6,598.3,1472.3,563.4,1515.9,564.1z M1515.5,688.1c26.7,1.4,46.7-21,46.7-45.3c0-26.5-21.3-45.5-45.2-46
		c-26.6-0.5-46.5,21.3-46.7,45.5C1470,667.4,1491.1,689.1,1515.5,688.1z"/>
	<path class="st1" d="M1516.4,924.1c-44.5-0.5-79.4-34.1-79.8-78.8c-0.4-44.4,33.9-79.9,79.1-80c44.4-0.1,79.1,34,79.5,78.9
		C1595.4,889.1,1560.4,923.2,1516.4,924.1z M1516,890.1c24.5,0.5,46.3-19.3,46-45.7c-0.2-26.4-20.1-46.3-46.5-45.9
		c-26.4,0.4-45,20.7-45.3,45.6C1470.1,869.8,1490.5,890.1,1516,890.1z"/>
	<path class="st3" d="M1513,751.1c-5.6,0-11.3-0.1-16.9,0c-2.7,0.1-3.9-0.8-3.8-3.7c0.2-4.6,0.1-9.3,0-13.9
		c-0.1-2.7,1.1-3.4,3.6-3.4c11.6,0.1,23.2,0.1,34.9,0c2.5,0,3.6,0.8,3.6,3.4c-0.1,4.6-0.2,9.3,0,13.9c0.1,2.9-1.1,3.7-3.9,3.7
		C1524.6,751,1518.8,751.1,1513,751.1z"/>
	<path class="st1" d="M1403.4,682.6c0,11.2-7.3,18.1-18.3,18.7c-8.7,0.5-18.5-8.3-18.6-18.5c-0.1-9.7,9.3-18.9,18.5-18.7
		C1395.2,664.3,1403.3,672.5,1403.4,682.6z M1386.4,696.1c6-0.1,11-5.3,10.8-11.3c-0.2-5.9-5.5-10.7-11.6-10.6
		c-5.8,0.1-10.4,5-10.3,11.1C1375.3,691.5,1380.1,696.2,1386.4,696.1z"/>
	<path class="st1" d="M1403.4,821.5c0.3,11.1-8.5,18-18.2,18.4c-9.8,0.4-19.2-9.1-18.7-18.8c0.6-10.1,8.4-18.5,18.6-18.2
		C1396.1,803.3,1403.4,810.4,1403.4,821.5z M1375.3,823.2c0,6.3,4.7,11.3,10.8,11.5c5.6,0.1,11.3-5.7,11.2-11.3
		c-0.1-6-5.2-11-11.2-11.1C1380.3,812.1,1375.3,817.3,1375.3,823.2z"/>
	<path class="st1" d="M1404.2,614.4c0,11.1-8.3,19.5-19.3,19.6c-10.2,0.1-19.6-9.5-19.5-19.9c0.1-9.9,9.5-18.9,19.8-18.9
		C1396.3,595.2,1404.2,603.2,1404.2,614.4z M1374.8,616.6c0,6.6,4.7,11.7,11.2,11.9c5.7,0.2,11.7-5.7,11.7-11.7
		c0.1-5.8-5.9-12-11.5-12C1380,604.9,1374.8,610.2,1374.8,616.6z"/>
	<path class="st1" d="M1403.4,752.2c-0.1,10.2-8.3,18-18.7,17.9c-9.6-0.1-18.5-8.9-18.2-18.8c0.3-9.8,8.8-18.8,19.1-18.3
		C1395.9,733.4,1403.5,741.3,1403.4,752.2z M1375.3,754c0,6,5.2,11.1,11.2,10.9c5.8-0.2,10.9-5.7,10.7-11.6c-0.1-5.6-5.8-11-11.4-11
		C1380,742.4,1375.3,747.7,1375.3,754z"/>
	<path class="st1" d="M1403.4,888.6c0,10.5-7.8,18.5-18.1,18.5c-10,0-19.1-8.9-19-18.7c0.2-9.9,9-18.4,19.1-18.4
		C1395.9,870.1,1403.4,877.9,1403.4,888.6z M1375.3,890.9c0,5.8,4.9,11,10.5,11.1c6.1,0,11.4-5.2,11.4-11.4
		c0-5.5-5.2-10.9-10.7-11.1C1380.2,879.3,1375.3,884.3,1375.3,890.9z"/>
	<path class="st0" d="M1515.5,688.1c-24.4,1-45.5-20.7-45.2-45.7c0.2-24.2,20.1-46,46.7-45.5c23.9,0.4,45.2,19.5,45.2,46
		C1562.2,667.2,1542.2,689.5,1515.5,688.1z M1515.6,686.1c21.5,0.6,43.9-15.7,44.1-43.3c0.2-25.5-20-43.5-43.3-43.7
		c-24.1-0.2-44.2,19.3-43.9,43.6C1472.8,667,1491.9,686.1,1515.6,686.1z"/>
	<path class="st0" d="M1516,890.1c-25.5,0-46-20.4-45.7-46c0.3-24.9,18.8-45.3,45.3-45.6c26.4-0.4,46.2,19.5,46.5,45.9
		C1562.3,870.9,1540.6,890.6,1516,890.1z M1516.3,801c-24.1,0-43.8,19.4-43.9,43.2c0,23.8,19.7,43.7,43.4,43.8
		c22.5,0.1,43.8-17.2,43.9-43.6C1559.8,818.7,1539.1,800.7,1516.3,801z"/>
	<path class="st0" d="M1386.4,696.1c-6.3,0.1-11.1-4.6-11.1-10.8c0-6.1,4.5-11,10.3-11.1c6.1-0.1,11.4,4.7,11.6,10.6
		C1397.4,690.7,1392.4,696,1386.4,696.1z M1386.1,676.3c-4.6-0.1-8.9,4.3-8.8,9c0.1,4.5,4.1,8.6,8.6,8.7c4.6,0.1,9-4,9.2-8.7
		C1395.2,680.9,1390.7,676.4,1386.1,676.3z"/>
	<path class="st0" d="M1375.3,823.2c0-5.9,5.1-11.1,10.7-11c6,0.1,11.1,5.1,11.2,11.1c0.1,5.6-5.6,11.4-11.2,11.3
		C1380,834.6,1375.3,829.5,1375.3,823.2z M1386.1,832.2c4.9,0,9-4.2,8.9-8.9c-0.1-4.5-4.2-8.6-8.8-8.6c-4.8,0-9,4.2-8.9,9
		C1377.4,828.2,1381.5,832.2,1386.1,832.2z"/>
	<path class="st0" d="M1373.5,616.5c0-7.1,5.7-13,12.7-13c6.2-0.1,12.8,6.8,12.8,13.3c-0.1,6.6-6.6,13.2-13,13
		C1378.8,629.5,1373.5,623.9,1373.5,616.5z M1386.2,626.6c5.5-0.1,10.1-4.4,10.2-9.8c0.1-5.4-4.9-10.3-10.5-10.2
		c-5.7,0.1-10.3,4.9-10.1,10.5C1376.1,622.5,1380.6,626.7,1386.2,626.6z"/>
	<path class="st0" d="M1375.3,754c0-6.3,4.8-11.6,10.5-11.7c5.6,0,11.3,5.4,11.4,11c0.1,5.9-5,11.4-10.7,11.6
		C1380.5,765.1,1375.3,760.1,1375.3,754z M1386.4,762.4c4.6-0.1,8.6-4.2,8.7-8.7c0-4.7-4.3-8.8-9.1-8.7c-4.6,0.1-8.6,4.2-8.6,8.7
		C1377.3,758.5,1381.4,762.5,1386.4,762.4z"/>
	<path class="st0" d="M1375.3,890.9c0-6.6,5-11.6,11.2-11.4c5.5,0.2,10.7,5.6,10.7,11.1c0,6.2-5.3,11.4-11.4,11.4
		C1380.2,901.9,1375.3,896.7,1375.3,890.9z M1386,899.5c4.7,0.1,9-4.1,9-8.7c0-4.7-4.2-8.8-8.9-8.8c-4.5,0.1-8.6,4-8.7,8.5
		C1377.1,895.1,1381.2,899.4,1386,899.5z"/>
	<path class="st2" d="M1515.6,686.1c-23.7,0-42.9-19.1-43.1-43.4c-0.2-24.3,19.8-43.8,43.9-43.6c23.3,0.2,43.5,18.2,43.3,43.7
		C1559.5,670.4,1537.2,686.7,1515.6,686.1z M1478.1,642.6c-0.3,19,14.6,38.2,37.7,37.6c20.5-0.5,37.5-17.1,37.5-37.6
		c0-20.7-17.1-37.7-37.9-37.6C1494.6,605.1,1478.1,621.7,1478.1,642.6z"/>
	<path class="st2" d="M1516.3,801c22.8-0.3,43.5,17.7,43.4,43.4c-0.1,26.4-21.4,43.7-43.9,43.6c-23.6-0.1-43.4-20.1-43.4-43.8
		C1472.5,820.4,1492.2,801,1516.3,801z M1514.5,807c-21-0.4-37.3,19.3-36.5,38.5c0.8,20.6,17.7,37,38.8,36.6
		c20.1-0.3,36.8-18,36.4-38.6C1552.9,822.9,1535.7,806.6,1514.5,807z"/>
	<path class="st4" d="M1386.1,676.3c4.6,0.1,9,4.5,8.9,9c-0.1,4.6-4.6,8.8-9.2,8.7c-4.5-0.1-8.5-4.2-8.6-8.7
		C1377.2,680.6,1381.6,676.3,1386.1,676.3z"/>
	<path class="st4" d="M1386.1,832.2c-4.6,0-8.7-4-8.8-8.5c-0.1-4.7,4.1-9,8.9-9c4.6,0,8.7,4,8.8,8.6
		C1395.1,828.1,1390.9,832.2,1386.1,832.2z"/>
	<path class="st5" d="M1386.3,626.9c-5.8,0.1-10.3-4.2-10.6-9.8c-0.2-5.7,4.5-10.6,10.3-10.7c5.7-0.1,10.8,4.9,10.7,10.4
		C1396.6,622.4,1391.9,626.9,1386.3,626.9z"/>
	<path class="st4" d="M1386.4,762.4c-4.9,0.1-9.1-3.9-9.1-8.7c0-4.5,4-8.6,8.6-8.7c4.8-0.1,9.1,4,9.1,8.7
		C1395,758.2,1391,762.3,1386.4,762.4z"/>
	<path class="st4" d="M1386,899.5c-4.7-0.1-8.8-4.3-8.7-9c0.2-4.5,4.2-8.4,8.7-8.5c4.7-0.1,9,4.1,8.9,8.8
		C1395,895.4,1390.7,899.5,1386,899.5z"/>
	<path class="st0" d="M1478.1,642.6c0-20.9,16.5-37.5,37.2-37.6c20.8-0.1,38,16.9,37.9,37.6c0,20.5-17,37.1-37.5,37.6
		C1492.7,680.8,1477.8,661.6,1478.1,642.6z M1499.1,674.7c1.9,0.1,2.4-0.7,3-1.6c12.1-17.2,24.2-34.5,36.5-51.6
		c3.1-4.3-0.7-5-2.8-6.6c-2.1-1.6-4-4.1-6.7-0.1c-11.4,16.5-23.2,32.8-34.6,49.3c-1,1.5-4,2.9-2.4,4.9
		C1494,671.4,1497,673.1,1499.1,674.7z"/>
	<path class="st0" d="M1514.5,807c21.2-0.3,38.4,15.9,38.8,36.6c0.3,20.6-16.3,38.2-36.4,38.6c-21.2,0.4-38-16-38.8-36.6
		C1477.2,826.3,1493.5,806.5,1514.5,807z M1506.3,810.3c-2.9,1-6,1.6-8.1,3.7c-1.9,2,0.5,4.1,1.2,5.8c7.2,17.5,14.6,35,21.9,52.4
		c2.8,6.7,3.2,6.8,10,3.3c2.7-1.4,3.2-2.8,1.9-5.5c-1.9-3.9-3.5-7.9-5.1-11.9c-6.2-14.9-12.4-29.7-18.7-44.6
		C1508.8,812.2,1508.6,810.2,1506.3,810.3z"/>
	<path class="st1" d="M1499.1,674.7c-2.1-1.7-5.2-3.3-7.2-5.8c-1.6-2,1.4-3.4,2.4-4.9c11.5-16.5,23.2-32.8,34.6-49.3
		c2.7-4,4.6-1.5,6.7,0.1c2.1,1.6,5.9,2.4,2.8,6.6c-12.3,17.1-24.3,34.4-36.5,51.6C1501.6,674,1501.1,674.9,1499.1,674.7z"/>
	<path class="st1" d="M1506.3,810.3c2.2,0,2.5,2,3.1,3.4c6.3,14.8,12.5,29.7,18.7,44.6c1.7,4,3.2,8,5.1,11.9
		c1.3,2.7,0.8,4.1-1.9,5.5c-6.8,3.4-7.2,3.4-10-3.3c-7.3-17.5-14.7-34.9-21.9-52.4c-0.7-1.8-3.2-3.8-1.2-5.8
		C1500.3,811.8,1503.5,811.2,1506.3,810.3z"/>
</g>
</svg>
